<svg width="2298" height="1399" viewBox="0 0 2298 1399" fill="none" xmlns="http://www.w3.org/2000/svg">
<g clip-path="url(#clip0)">
<rect width="2298" height="1399" fill="#E3E6EC"/>
<g opacity="0.5" filter="url(#filter0_f)">
<path d="M1231 490.77L1778.5 162L2326 490.77V493.229L1778.5 822L1231 493.229V490.77Z" fill="url(#paint0_linear)"/>
</g>
<mask id="path-2-inside-1" fill="white">
<path fill-rule="evenodd" clip-rule="evenodd" d="M1497.41 285H1612.72C1657.81 285 1688 316.654 1688 363.736V472.41C1688 519.346 1657.81 551 1612.72 551H1497.41C1452.32 551 1422 519.346 1422 472.41V363.736C1422 316.654 1452.32 285 1497.41 285ZM1547.42 457.769L1610.59 394.594C1615.12 390.072 1615.12 382.757 1610.59 378.102C1606.07 373.58 1598.62 373.58 1594.1 378.102L1539.17 433.031L1515.9 409.756C1511.38 405.234 1503.93 405.234 1499.41 409.756C1494.88 414.278 1494.88 421.593 1499.41 426.248L1531.06 457.769C1533.32 460.03 1536.25 461.094 1539.17 461.094C1542.23 461.094 1545.16 460.03 1547.42 457.769Z"/>
</mask>
<path fill-rule="evenodd" clip-rule="evenodd" d="M1497.41 285H1612.72C1657.81 285 1688 316.654 1688 363.736V472.41C1688 519.346 1657.81 551 1612.72 551H1497.41C1452.32 551 1422 519.346 1422 472.41V363.736C1422 316.654 1452.32 285 1497.41 285ZM1547.42 457.769L1610.59 394.594C1615.12 390.072 1615.12 382.757 1610.59 378.102C1606.07 373.58 1598.62 373.58 1594.1 378.102L1539.17 433.031L1515.9 409.756C1511.38 405.234 1503.93 405.234 1499.41 409.756C1494.88 414.278 1494.88 421.593 1499.41 426.248L1531.06 457.769C1533.32 460.03 1536.25 461.094 1539.17 461.094C1542.23 461.094 1545.16 460.03 1547.42 457.769Z" fill="url(#paint1_radial)"/>
<path d="M1610.59 394.594L1609.89 393.886L1609.89 393.886L1610.59 394.594ZM1547.42 457.769L1548.13 458.476L1548.13 458.476L1547.42 457.769ZM1610.59 378.102L1611.31 377.405L1611.31 377.4L1611.3 377.394L1610.59 378.102ZM1594.1 378.102L1593.4 377.394L1593.4 377.394L1594.1 378.102ZM1539.17 433.031L1538.47 433.738L1539.17 434.445L1539.88 433.738L1539.17 433.031ZM1515.9 409.756L1516.61 409.048L1516.61 409.048L1515.9 409.756ZM1499.41 409.756L1500.11 410.463L1500.11 410.463L1499.41 409.756ZM1499.41 426.248L1498.69 426.944L1498.7 426.95L1498.7 426.956L1499.41 426.248ZM1531.06 457.769L1531.77 457.061L1531.77 457.06L1531.06 457.769ZM1612.72 284H1497.41V286H1612.72V284ZM1689 363.736C1689 339.979 1681.38 320.034 1667.99 306.021C1654.6 292.004 1635.51 284 1612.72 284V286C1635.02 286 1653.57 293.823 1666.55 307.403C1679.52 320.988 1687 340.411 1687 363.736H1689ZM1689 472.41V363.736H1687V472.41H1689ZM1612.72 552C1635.51 552 1654.6 543.996 1667.99 529.997C1681.38 516.003 1689 496.094 1689 472.41H1687C1687 495.662 1679.53 515.048 1666.55 528.615C1653.57 542.177 1635.02 550 1612.72 550V552ZM1497.41 552H1612.72V550H1497.41V552ZM1421 472.41C1421 496.096 1428.65 516.004 1442.08 529.998C1455.5 543.996 1474.62 552 1497.41 552V550C1475.11 550 1456.53 542.177 1443.52 528.614C1430.51 515.047 1423 495.661 1423 472.41H1421ZM1421 363.736V472.41H1423V363.736H1421ZM1497.41 284C1474.62 284 1455.5 292.004 1442.08 306.021C1428.65 320.033 1421 339.978 1421 363.736H1423C1423 340.412 1430.51 320.989 1443.52 307.404C1456.53 293.823 1475.11 286 1497.41 286V284ZM1609.89 393.886L1546.71 457.061L1548.13 458.476L1611.3 395.301L1609.89 393.886ZM1609.88 378.798C1614.03 383.071 1614.01 389.76 1609.89 393.886L1611.3 395.301C1616.22 390.383 1616.21 382.442 1611.31 377.405L1609.88 378.798ZM1594.81 378.809C1598.94 374.677 1605.76 374.677 1609.89 378.809L1611.3 377.394C1606.39 372.482 1598.31 372.482 1593.4 377.394L1594.81 378.809ZM1539.88 433.738L1594.81 378.809L1593.4 377.394L1538.47 432.323L1539.88 433.738ZM1515.19 410.463L1538.47 433.738L1539.88 432.323L1516.61 409.048L1515.19 410.463ZM1500.11 410.463C1504.25 406.331 1511.06 406.331 1515.19 410.463L1516.61 409.048C1511.69 404.136 1503.61 404.136 1498.7 409.048L1500.11 410.463ZM1500.12 425.551C1495.97 421.278 1495.99 414.589 1500.11 410.463L1498.7 409.048C1493.78 413.967 1493.8 421.907 1498.69 426.944L1500.12 425.551ZM1531.77 457.06L1500.11 425.539L1498.7 426.956L1530.36 458.477L1531.77 457.06ZM1539.17 460.094C1536.49 460.094 1533.83 459.121 1531.77 457.061L1530.35 458.476C1532.82 460.938 1536 462.094 1539.17 462.094V460.094ZM1546.71 457.061C1544.66 459.117 1541.99 460.094 1539.17 460.094V462.094C1542.47 462.094 1545.66 460.943 1548.13 458.476L1546.71 457.061Z" fill="url(#paint2_linear)" mask="url(#path-2-inside-1)"/>
<mask id="path-4-inside-2" fill="white">
<path fill-rule="evenodd" clip-rule="evenodd" d="M1455.83 626H1489.21C1502.26 626 1511 635.163 1511 648.792V680.25C1511 693.837 1502.26 703 1489.21 703H1455.83C1442.78 703 1434 693.837 1434 680.25V648.792C1434 635.163 1442.78 626 1455.83 626ZM1470.31 676.012L1488.59 657.724C1489.9 656.415 1489.9 654.298 1488.59 652.95C1487.28 651.641 1485.13 651.641 1483.82 652.95L1467.92 668.851L1461.18 662.113C1459.87 660.804 1457.72 660.804 1456.41 662.113C1455.1 663.422 1455.1 665.54 1456.41 666.887L1465.57 676.012C1466.22 676.666 1467.07 676.974 1467.92 676.974C1468.8 676.974 1469.65 676.666 1470.31 676.012Z"/>
</mask>
<path fill-rule="evenodd" clip-rule="evenodd" d="M1455.83 626H1489.21C1502.26 626 1511 635.163 1511 648.792V680.25C1511 693.837 1502.26 703 1489.21 703H1455.83C1442.78 703 1434 693.837 1434 680.25V648.792C1434 635.163 1442.78 626 1455.83 626ZM1470.31 676.012L1488.59 657.724C1489.9 656.415 1489.9 654.298 1488.59 652.95C1487.28 651.641 1485.13 651.641 1483.82 652.95L1467.92 668.851L1461.18 662.113C1459.87 660.804 1457.72 660.804 1456.41 662.113C1455.1 663.422 1455.1 665.54 1456.41 666.887L1465.57 676.012C1466.22 676.666 1467.07 676.974 1467.92 676.974C1468.8 676.974 1469.65 676.666 1470.31 676.012Z" fill="url(#paint3_radial)"/>
<path d="M1488.59 657.724L1487.89 657.017L1487.89 657.017L1488.59 657.724ZM1470.31 676.012L1469.6 675.305L1469.6 675.305L1470.31 676.012ZM1488.59 652.95L1489.31 652.254L1489.31 652.248L1489.3 652.243L1488.59 652.95ZM1483.82 652.95L1483.11 652.243L1483.11 652.243L1483.82 652.95ZM1467.92 668.851L1467.21 669.558L1467.92 670.265L1468.63 669.558L1467.92 668.851ZM1461.18 662.113L1460.47 662.821L1460.47 662.821L1461.18 662.113ZM1456.41 666.887L1455.69 667.584L1455.7 667.59L1455.7 667.596L1456.41 666.887ZM1465.57 676.012L1466.28 675.305L1466.28 675.303L1465.57 676.012ZM1489.21 625H1455.83V627H1489.21V625ZM1512 648.792C1512 641.762 1509.74 635.803 1505.72 631.594C1501.7 627.382 1495.98 625 1489.21 625V627C1495.49 627 1500.67 629.2 1504.28 632.976C1507.89 636.756 1510 642.193 1510 648.792H1512ZM1512 680.25V648.792H1510V680.25H1512ZM1489.21 704C1495.98 704 1501.7 701.618 1505.72 697.411C1509.74 693.208 1512 687.26 1512 680.25H1510C1510 686.827 1507.89 692.254 1504.28 696.029C1500.67 699.8 1495.49 702 1489.21 702V704ZM1455.83 704H1489.21V702H1455.83V704ZM1433 680.25C1433 687.261 1435.27 693.21 1439.3 697.412C1443.33 701.619 1449.06 704 1455.83 704V702C1449.55 702 1444.36 699.8 1440.74 696.028C1437.12 692.252 1435 686.826 1435 680.25H1433ZM1433 648.792V680.25H1435V648.792H1433ZM1455.83 625C1449.06 625 1443.33 627.382 1439.3 631.593C1435.27 635.802 1433 641.761 1433 648.792H1435C1435 642.194 1437.12 636.757 1440.74 632.977C1444.36 629.2 1449.55 627 1455.83 627V625ZM1487.89 657.017L1469.6 675.305L1471.01 676.719L1489.3 658.432L1487.89 657.017ZM1487.88 653.647C1488.81 654.612 1488.8 656.104 1487.89 657.017L1489.3 658.432C1491.01 656.726 1490.99 653.983 1489.31 652.254L1487.88 653.647ZM1484.53 653.658C1485.44 652.739 1486.97 652.739 1487.89 653.658L1489.3 652.243C1487.6 650.544 1484.81 650.544 1483.11 652.243L1484.53 653.658ZM1468.63 669.558L1484.53 653.658L1483.11 652.243L1467.21 668.144L1468.63 669.558ZM1460.47 662.821L1467.21 669.558L1468.63 668.144L1461.89 661.406L1460.47 662.821ZM1457.11 662.821C1458.03 661.902 1459.56 661.902 1460.47 662.821L1461.89 661.406C1460.19 659.707 1457.4 659.707 1455.7 661.406L1457.11 662.821ZM1457.12 666.191C1456.19 665.225 1456.2 663.733 1457.11 662.821L1455.7 661.406C1453.99 663.111 1454.01 665.854 1455.69 667.584L1457.12 666.191ZM1466.28 675.303L1457.11 666.179L1455.7 667.596L1464.86 676.721L1466.28 675.303ZM1467.92 675.974C1467.32 675.974 1466.73 675.757 1466.28 675.305L1464.86 676.719C1465.72 677.575 1466.83 677.974 1467.92 677.974V675.974ZM1469.6 675.305C1469.15 675.753 1468.57 675.974 1467.92 675.974V677.974C1469.04 677.974 1470.15 677.579 1471.01 676.719L1469.6 675.305Z" fill="url(#paint4_linear)" mask="url(#path-4-inside-2)"/>
<mask id="path-6-inside-3" fill="white">
<path fill-rule="evenodd" clip-rule="evenodd" d="M1786.59 720H1810.43C1819.76 720 1826 726.545 1826 736.28V758.75C1826 768.455 1819.76 775 1810.43 775H1786.59C1777.27 775 1771 768.455 1771 758.75V736.28C1771 726.545 1777.27 720 1786.59 720ZM1796.93 755.723L1810 742.66C1810.93 741.725 1810.93 740.213 1810 739.25C1809.06 738.315 1807.52 738.315 1806.59 739.25L1795.23 750.608L1790.42 745.795C1789.48 744.86 1787.94 744.86 1787.01 745.795C1786.07 746.73 1786.07 748.243 1787.01 749.205L1793.55 755.723C1794.02 756.19 1794.62 756.41 1795.23 756.41C1795.86 756.41 1796.47 756.19 1796.93 755.723Z"/>
</mask>
<path fill-rule="evenodd" clip-rule="evenodd" d="M1786.59 720H1810.43C1819.76 720 1826 726.545 1826 736.28V758.75C1826 768.455 1819.76 775 1810.43 775H1786.59C1777.27 775 1771 768.455 1771 758.75V736.28C1771 726.545 1777.27 720 1786.59 720ZM1796.93 755.723L1810 742.66C1810.93 741.725 1810.93 740.213 1810 739.25C1809.06 738.315 1807.52 738.315 1806.59 739.25L1795.23 750.608L1790.42 745.795C1789.48 744.86 1787.94 744.86 1787.01 745.795C1786.07 746.73 1786.07 748.243 1787.01 749.205L1793.55 755.723C1794.02 756.19 1794.62 756.41 1795.23 756.41C1795.86 756.41 1796.47 756.19 1796.93 755.723Z" fill="url(#paint5_radial)"/>
<path d="M1810 742.66L1810.7 743.367L1810.7 743.367L1810 742.66ZM1796.93 755.723L1797.64 756.43L1797.64 756.43L1796.93 755.723ZM1810 739.25L1810.71 738.554L1810.71 738.548L1810.7 738.543L1810 739.25ZM1806.59 739.25L1807.29 739.957L1807.29 739.957L1806.59 739.25ZM1795.23 750.608L1794.52 751.315L1795.23 752.022L1795.93 751.315L1795.23 750.608ZM1790.42 745.795L1789.71 746.502L1789.71 746.502L1790.42 745.795ZM1787.01 749.205L1786.29 749.902L1786.29 749.908L1786.3 749.914L1787.01 749.205ZM1793.55 755.723L1794.26 755.016L1794.26 755.014L1793.55 755.723ZM1810.43 719H1786.59V721H1810.43V719ZM1827 736.28C1827 731.197 1825.37 726.866 1822.44 723.799C1819.5 720.727 1815.34 719 1810.43 719V721C1814.85 721 1818.47 722.545 1820.99 725.18C1823.51 727.819 1825 731.628 1825 736.28H1827ZM1827 758.75V736.28H1825V758.75H1827ZM1810.43 776C1815.34 776 1819.5 774.273 1822.44 771.206C1825.37 768.142 1827 763.819 1827 758.75H1825C1825 763.386 1823.51 767.188 1820.99 769.823C1818.47 772.455 1814.85 774 1810.43 774V776ZM1786.59 776H1810.43V774H1786.59V776ZM1770 758.75C1770 763.82 1771.64 768.144 1774.58 771.207C1777.52 774.273 1781.69 776 1786.59 776V774C1782.17 774 1778.55 772.454 1776.02 769.822C1773.49 767.186 1772 763.385 1772 758.75H1770ZM1770 736.28V758.75H1772V736.28H1770ZM1786.59 719C1781.69 719 1777.52 720.727 1774.58 723.798C1771.64 726.865 1770 731.196 1770 736.28H1772C1772 731.629 1773.49 727.82 1776.02 725.181C1778.55 722.545 1782.17 721 1786.59 721V719ZM1809.29 741.953L1796.23 755.016L1797.64 756.43L1810.7 743.367L1809.29 741.953ZM1809.28 739.947C1809.84 740.527 1809.83 741.414 1809.29 741.953L1810.7 743.367C1812.03 742.036 1812.02 739.898 1810.71 738.554L1809.28 739.947ZM1807.29 739.957C1807.84 739.413 1808.74 739.413 1809.29 739.957L1810.7 738.543C1809.38 737.218 1807.2 737.218 1805.88 738.543L1807.29 739.957ZM1795.93 751.315L1807.29 739.957L1805.88 738.543L1794.52 749.901L1795.93 751.315ZM1789.71 746.502L1794.52 751.315L1795.93 749.901L1791.12 745.088L1789.71 746.502ZM1787.71 746.502C1788.26 745.958 1789.16 745.958 1789.71 746.502L1791.12 745.088C1789.8 743.763 1787.62 743.763 1786.3 745.088L1787.71 746.502ZM1787.72 748.509C1787.16 747.928 1787.17 747.041 1787.71 746.502L1786.3 745.088C1784.97 746.419 1784.98 748.557 1786.29 749.902L1787.72 748.509ZM1794.26 755.014L1787.71 748.497L1786.3 749.914L1792.84 756.431L1794.26 755.014ZM1795.23 755.41C1794.87 755.41 1794.52 755.281 1794.26 755.016L1792.84 756.43C1793.51 757.099 1794.38 757.41 1795.23 757.41V755.41ZM1796.23 755.016C1795.96 755.277 1795.62 755.41 1795.23 755.41V757.41C1796.1 757.41 1796.97 757.103 1797.64 756.43L1796.23 755.016Z" fill="url(#paint6_linear)" mask="url(#path-6-inside-3)"/>
<mask id="path-8-inside-4" fill="white">
<path fill-rule="evenodd" clip-rule="evenodd" d="M1689.53 176H1725.51C1739.58 176 1749 185.877 1749 200.568V234.478C1749 249.127 1739.58 259 1725.51 259H1689.53C1675.46 259 1666 249.127 1666 234.478V200.568C1666 185.877 1675.46 176 1689.53 176ZM1719.99 229.949C1721.4 228.543 1721.4 226.26 1719.99 224.849L1712.61 217.462L1719.99 210.071C1721.4 208.664 1721.4 206.34 1719.99 204.929C1718.58 203.514 1716.3 203.514 1714.85 204.929L1707.5 212.312L1700.11 204.929C1698.66 203.514 1696.38 203.514 1694.97 204.929C1693.56 206.34 1693.56 208.664 1694.97 210.071L1702.35 217.462L1694.97 224.808C1693.56 226.26 1693.56 228.543 1694.97 229.949C1695.67 230.655 1696.63 231.033 1697.54 231.033C1698.5 231.033 1699.41 230.655 1700.11 229.949L1707.5 222.608L1714.89 229.949C1715.59 230.701 1716.51 231.033 1717.42 231.033C1718.37 231.033 1719.29 230.655 1719.99 229.949Z"/>
</mask>
<path fill-rule="evenodd" clip-rule="evenodd" d="M1689.53 176H1725.51C1739.58 176 1749 185.877 1749 200.568V234.478C1749 249.127 1739.58 259 1725.51 259H1689.53C1675.46 259 1666 249.127 1666 234.478V200.568C1666 185.877 1675.46 176 1689.53 176ZM1719.99 229.949C1721.4 228.543 1721.4 226.26 1719.99 224.849L1712.61 217.462L1719.99 210.071C1721.4 208.664 1721.4 206.34 1719.99 204.929C1718.58 203.514 1716.3 203.514 1714.85 204.929L1707.5 212.312L1700.11 204.929C1698.66 203.514 1696.38 203.514 1694.97 204.929C1693.56 206.34 1693.56 208.664 1694.97 210.071L1702.35 217.462L1694.97 224.808C1693.56 226.26 1693.56 228.543 1694.97 229.949C1695.67 230.655 1696.63 231.033 1697.54 231.033C1698.5 231.033 1699.41 230.655 1700.11 229.949L1707.5 222.608L1714.89 229.949C1715.59 230.701 1716.51 231.033 1717.42 231.033C1718.37 231.033 1719.29 230.655 1719.99 229.949Z" fill="url(#paint7_radial)"/>
<path d="M1719.99 229.949L1719.29 229.241L1719.28 229.242L1719.99 229.949ZM1712.61 217.462L1711.9 216.755L1711.19 217.462L1711.9 218.169L1712.61 217.462ZM1719.99 210.071L1719.29 209.363L1719.28 209.364L1719.99 210.071ZM1719.99 204.929L1719.28 205.635L1719.28 205.636L1719.99 204.929ZM1714.85 204.929L1714.15 204.213L1714.14 204.218L1714.14 204.224L1714.85 204.929ZM1707.5 212.312L1706.79 213.019L1707.5 213.728L1708.21 213.017L1707.5 212.312ZM1700.11 204.929L1700.82 204.222L1700.81 204.213L1700.11 204.929ZM1694.97 204.929L1695.67 205.636L1695.68 205.635L1694.97 204.929ZM1694.97 210.071L1695.67 209.364L1695.67 209.363L1694.97 210.071ZM1702.35 217.462L1703.06 218.171L1703.77 217.464L1703.06 216.755L1702.35 217.462ZM1694.97 224.808L1694.26 224.099L1694.26 224.105L1694.25 224.111L1694.97 224.808ZM1694.97 229.949L1695.67 229.242L1695.67 229.241L1694.97 229.949ZM1700.11 229.949L1699.41 229.24L1699.41 229.242L1700.11 229.949ZM1707.5 222.608L1708.21 221.899L1707.5 221.198L1706.8 221.899L1707.5 222.608ZM1714.89 229.949L1715.62 229.265L1715.6 229.252L1715.59 229.24L1714.89 229.949ZM1725.51 175H1689.53V177H1725.51V175ZM1750 200.568C1750 193.007 1747.57 186.604 1743.25 182.084C1738.93 177.56 1732.79 175 1725.51 175V177C1732.3 177 1737.9 179.378 1741.81 183.466C1745.72 187.557 1748 193.438 1748 200.568H1750ZM1750 234.478V200.568H1748V234.478H1750ZM1725.51 260C1732.79 260 1738.93 257.441 1743.25 252.924C1747.57 248.41 1750 242.019 1750 234.478H1748C1748 241.586 1745.72 247.456 1741.81 251.541C1737.9 255.623 1732.3 258 1725.51 258V260ZM1689.53 260H1725.51V258H1689.53V260ZM1665 234.478C1665 242.02 1667.44 248.412 1671.77 252.925C1676.1 257.441 1682.25 260 1689.53 260V258C1682.74 258 1677.13 255.622 1673.21 251.54C1669.29 247.454 1667 241.585 1667 234.478H1665ZM1665 200.568V234.478H1667V200.568H1665ZM1689.53 175C1682.25 175 1676.1 177.56 1671.77 182.083C1667.44 186.603 1665 193.006 1665 200.568H1667C1667 193.439 1669.29 187.558 1673.21 183.467C1677.13 179.378 1682.74 177 1689.53 177V175ZM1719.28 225.556C1720.31 226.577 1720.3 228.226 1719.29 229.241L1720.7 230.658C1722.5 228.859 1722.5 225.943 1720.7 224.142L1719.28 225.556ZM1711.9 218.169L1719.28 225.556L1720.7 224.142L1713.31 216.755L1711.9 218.169ZM1719.28 209.364L1711.9 216.755L1713.31 218.169L1720.7 210.778L1719.28 209.364ZM1719.28 205.636C1720.31 206.657 1720.3 208.347 1719.29 209.363L1720.7 210.779C1722.5 208.981 1722.5 206.023 1720.7 204.222L1719.28 205.636ZM1715.54 205.645C1716.61 204.603 1718.27 204.618 1719.28 205.635L1720.7 204.223C1718.89 202.41 1715.98 202.425 1714.15 204.213L1715.54 205.645ZM1708.21 213.017L1715.55 205.634L1714.14 204.224L1706.79 211.607L1708.21 213.017ZM1699.41 205.636L1706.79 213.019L1708.21 211.605L1700.82 204.222L1699.41 205.636ZM1695.68 205.635C1696.69 204.618 1698.35 204.603 1699.42 205.645L1700.81 204.213C1698.98 202.425 1696.07 202.41 1694.26 204.223L1695.68 205.635ZM1695.67 209.363C1694.66 208.347 1694.65 206.657 1695.67 205.636L1694.26 204.222C1692.46 206.023 1692.46 208.981 1694.26 210.779L1695.67 209.363ZM1703.06 216.755L1695.67 209.364L1694.26 210.778L1701.65 218.169L1703.06 216.755ZM1695.67 225.517L1703.06 218.171L1701.65 216.753L1694.26 224.099L1695.67 225.517ZM1695.67 229.241C1694.66 228.231 1694.64 226.575 1695.68 225.504L1694.25 224.111C1692.47 225.945 1692.45 228.854 1694.26 230.658L1695.67 229.241ZM1697.54 230.033C1696.89 230.033 1696.19 229.76 1695.67 229.242L1694.26 230.657C1695.15 231.55 1696.36 232.033 1697.54 232.033V230.033ZM1699.41 229.242C1698.88 229.765 1698.22 230.033 1697.54 230.033V232.033C1698.77 232.033 1699.93 231.545 1700.82 230.657L1699.41 229.242ZM1706.8 221.899L1699.41 229.24L1700.82 230.659L1708.21 223.317L1706.8 221.899ZM1715.59 229.24L1708.21 221.899L1706.8 223.317L1714.18 230.659L1715.59 229.24ZM1717.42 230.033C1716.75 230.033 1716.11 229.796 1715.62 229.265L1714.16 230.634C1715.07 231.606 1716.26 232.033 1717.42 232.033V230.033ZM1719.28 229.242C1718.76 229.765 1718.1 230.033 1717.42 230.033V232.033C1718.64 232.033 1719.81 231.545 1720.7 230.657L1719.28 229.242Z" fill="url(#paint8_linear)" mask="url(#path-8-inside-4)"/>
<mask id="path-10-inside-5" fill="white">
<path fill-rule="evenodd" clip-rule="evenodd" d="M1656.47 611H1675.55C1683.01 611 1688 616.236 1688 624.024V642C1688 649.766 1683.01 655 1675.55 655H1656.47C1649.02 655 1644 649.766 1644 642V624.024C1644 616.236 1649.02 611 1656.47 611ZM1672.62 639.6C1673.37 638.854 1673.37 637.644 1672.62 636.896L1668.71 632.98L1672.62 629.062C1673.37 628.316 1673.37 627.084 1672.62 626.336C1671.87 625.586 1670.66 625.586 1669.89 626.336L1666 630.25L1662.08 626.336C1661.31 625.586 1660.1 625.586 1659.36 626.336C1658.61 627.084 1658.61 628.316 1659.36 629.062L1663.27 632.98L1659.36 636.874C1658.61 637.644 1658.61 638.854 1659.36 639.6C1659.73 639.974 1660.24 640.174 1660.72 640.174C1661.23 640.174 1661.71 639.974 1662.08 639.6L1666 635.708L1669.92 639.6C1670.29 639.998 1670.77 640.174 1671.26 640.174C1671.76 640.174 1672.25 639.974 1672.62 639.6Z"/>
</mask>
<path fill-rule="evenodd" clip-rule="evenodd" d="M1656.47 611H1675.55C1683.01 611 1688 616.236 1688 624.024V642C1688 649.766 1683.01 655 1675.55 655H1656.47C1649.02 655 1644 649.766 1644 642V624.024C1644 616.236 1649.02 611 1656.47 611ZM1672.62 639.6C1673.37 638.854 1673.37 637.644 1672.62 636.896L1668.71 632.98L1672.62 629.062C1673.37 628.316 1673.37 627.084 1672.62 626.336C1671.87 625.586 1670.66 625.586 1669.89 626.336L1666 630.25L1662.08 626.336C1661.31 625.586 1660.1 625.586 1659.36 626.336C1658.61 627.084 1658.61 628.316 1659.36 629.062L1663.27 632.98L1659.36 636.874C1658.61 637.644 1658.61 638.854 1659.36 639.6C1659.73 639.974 1660.24 640.174 1660.72 640.174C1661.23 640.174 1661.71 639.974 1662.08 639.6L1666 635.708L1669.92 639.6C1670.29 639.998 1670.77 640.174 1671.26 640.174C1671.76 640.174 1672.25 639.974 1672.62 639.6Z" fill="url(#paint9_radial)"/>
<path d="M1672.62 639.6L1671.92 638.892L1671.92 638.893L1672.62 639.6ZM1668.71 632.98L1668 632.273L1667.29 632.98L1668 633.687L1668.71 632.98ZM1672.62 629.062L1671.92 628.354L1671.91 628.355L1672.62 629.062ZM1672.62 626.336L1671.91 627.042L1671.92 627.043L1672.62 626.336ZM1669.89 626.336L1669.2 625.62L1669.19 625.625L1669.19 625.631L1669.89 626.336ZM1666 630.25L1665.29 630.957L1666 631.665L1666.71 630.955L1666 630.25ZM1662.08 626.336L1662.79 625.629L1662.78 625.62L1662.08 626.336ZM1659.36 626.336L1660.06 627.043L1660.06 627.042L1659.36 626.336ZM1659.36 629.062L1660.06 628.355L1660.06 628.354L1659.36 629.062ZM1663.27 632.98L1663.98 633.689L1664.69 632.982L1663.98 632.273L1663.27 632.98ZM1659.36 636.874L1658.65 636.165L1658.64 636.171L1658.64 636.177L1659.36 636.874ZM1659.36 639.6L1660.06 638.893L1660.06 638.892L1659.36 639.6ZM1662.08 639.6L1661.38 638.89L1661.38 638.893L1662.08 639.6ZM1666 635.708L1666.71 634.999L1666 634.298L1665.3 634.999L1666 635.708ZM1669.92 639.6L1670.65 638.915L1670.63 638.903L1670.62 638.89L1669.92 639.6ZM1675.55 610H1656.47V612H1675.55V610ZM1689 624.024C1689 619.914 1687.68 616.397 1685.29 613.901C1682.9 611.4 1679.52 610 1675.55 610V612C1679.03 612 1681.88 613.218 1683.85 615.282C1685.82 617.351 1687 620.346 1687 624.024H1689ZM1689 642V624.024H1687V642H1689ZM1675.55 656C1679.52 656 1682.9 654.601 1685.29 652.104C1687.68 649.611 1689 646.099 1689 642H1687C1687 645.667 1685.82 648.656 1683.85 650.721C1681.88 652.782 1679.03 654 1675.55 654V656ZM1656.47 656H1675.55V654H1656.47V656ZM1643 642C1643 646.101 1644.33 649.612 1646.72 652.105C1649.11 654.601 1652.5 656 1656.47 656V654C1652.99 654 1650.14 652.782 1648.16 650.72C1646.18 648.654 1645 645.666 1645 642H1643ZM1643 624.024V642H1645V624.024H1643ZM1656.47 610C1652.5 610 1649.11 611.4 1646.72 613.9C1644.33 616.396 1643 619.913 1643 624.024H1645C1645 620.347 1646.18 617.352 1648.16 615.283C1650.14 613.218 1652.99 612 1656.47 612V610ZM1671.92 637.603C1672.27 637.961 1672.27 638.537 1671.92 638.892L1673.33 640.308C1674.47 639.171 1674.47 637.327 1673.33 636.189L1671.92 637.603ZM1668 633.687L1671.92 637.603L1673.33 636.189L1669.41 632.273L1668 633.687ZM1671.91 628.355L1668 632.273L1669.41 633.687L1673.33 629.769L1671.91 628.355ZM1671.92 627.043C1672.27 627.401 1672.27 627.999 1671.92 628.354L1673.33 629.77C1674.47 628.633 1674.47 626.767 1673.33 625.629L1671.92 627.043ZM1670.59 627.052C1670.98 626.675 1671.56 626.689 1671.91 627.042L1673.33 625.63C1672.19 624.482 1670.35 624.497 1669.2 625.62L1670.59 627.052ZM1666.71 630.955L1670.6 627.041L1669.19 625.631L1665.29 629.544L1666.71 630.955ZM1661.38 627.043L1665.29 630.957L1666.71 629.542L1662.79 625.629L1661.38 627.043ZM1660.06 627.042C1660.42 626.689 1661 626.675 1661.39 627.052L1662.78 625.62C1661.63 624.497 1659.79 624.482 1658.65 625.63L1660.06 627.042ZM1660.06 628.354C1659.71 627.999 1659.71 627.401 1660.06 627.043L1658.65 625.629C1657.51 626.767 1657.51 628.633 1658.65 629.77L1660.06 628.354ZM1663.98 632.273L1660.06 628.355L1658.65 629.769L1662.56 633.687L1663.98 632.273ZM1660.06 637.583L1663.98 633.689L1662.57 632.271L1658.65 636.165L1660.06 637.583ZM1660.06 638.892C1659.71 638.543 1659.7 637.959 1660.07 637.571L1658.64 636.177C1657.52 637.329 1657.5 639.165 1658.65 640.308L1660.06 638.892ZM1660.72 639.174C1660.5 639.174 1660.25 639.079 1660.06 638.893L1658.65 640.307C1659.21 640.868 1659.97 641.174 1660.72 641.174V639.174ZM1661.38 638.893C1661.19 639.083 1660.96 639.174 1660.72 639.174V641.174C1661.5 641.174 1662.23 640.864 1662.79 640.307L1661.38 638.893ZM1665.3 634.999L1661.38 638.89L1662.79 640.309L1666.71 636.417L1665.3 634.999ZM1670.62 638.89L1666.71 634.999L1665.3 636.417L1669.21 640.309L1670.62 638.89ZM1671.26 639.174C1671.02 639.174 1670.81 639.093 1670.65 638.915L1669.19 640.284C1669.77 640.903 1670.53 641.174 1671.26 641.174V639.174ZM1671.92 638.893C1671.72 639.083 1671.49 639.174 1671.26 639.174V641.174C1672.04 641.174 1672.77 640.864 1673.33 640.307L1671.92 638.893Z" fill="url(#paint10_linear)" mask="url(#path-10-inside-5)"/>
<mask id="path-12-inside-6" fill="white">
<path fill-rule="evenodd" clip-rule="evenodd" d="M1399.07 227H1412.94C1418.37 227 1422 230.808 1422 236.472V249.546C1422 255.194 1418.37 259 1412.94 259H1399.07C1393.65 259 1390 255.194 1390 249.546V236.472C1390 230.808 1393.65 227 1399.07 227ZM1410.82 247.8C1411.36 247.258 1411.36 246.378 1410.82 245.834L1407.97 242.986L1410.82 240.136C1411.36 239.594 1411.36 238.698 1410.82 238.154C1410.27 237.608 1409.39 237.608 1408.83 238.154L1406 241L1403.15 238.154C1402.59 237.608 1401.71 237.608 1401.17 238.154C1400.62 238.698 1400.62 239.594 1401.17 240.136L1404.02 242.986L1401.17 245.818C1400.62 246.378 1400.62 247.258 1401.17 247.8C1401.44 248.072 1401.81 248.218 1402.16 248.218C1402.53 248.218 1402.88 248.072 1403.15 247.8L1406 244.97L1408.85 247.8C1409.12 248.09 1409.47 248.218 1409.82 248.218C1410.19 248.218 1410.54 248.072 1410.82 247.8Z"/>
</mask>
<path fill-rule="evenodd" clip-rule="evenodd" d="M1399.07 227H1412.94C1418.37 227 1422 230.808 1422 236.472V249.546C1422 255.194 1418.37 259 1412.94 259H1399.07C1393.65 259 1390 255.194 1390 249.546V236.472C1390 230.808 1393.65 227 1399.07 227ZM1410.82 247.8C1411.36 247.258 1411.36 246.378 1410.82 245.834L1407.97 242.986L1410.82 240.136C1411.36 239.594 1411.36 238.698 1410.82 238.154C1410.27 237.608 1409.39 237.608 1408.83 238.154L1406 241L1403.15 238.154C1402.59 237.608 1401.71 237.608 1401.17 238.154C1400.62 238.698 1400.62 239.594 1401.17 240.136L1404.02 242.986L1401.17 245.818C1400.62 246.378 1400.62 247.258 1401.17 247.8C1401.44 248.072 1401.81 248.218 1402.16 248.218C1402.53 248.218 1402.88 248.072 1403.15 247.8L1406 244.97L1408.85 247.8C1409.12 248.09 1409.47 248.218 1409.82 248.218C1410.19 248.218 1410.54 248.072 1410.82 247.8Z" fill="url(#paint11_radial)"/>
<path d="M1410.82 245.834L1410.11 246.541L1410.11 246.541L1410.82 245.834ZM1410.82 247.8L1410.11 247.092L1410.11 247.093L1410.82 247.8ZM1407.97 242.986L1407.26 242.279L1406.55 242.986L1407.26 243.693L1407.97 242.986ZM1410.82 240.136L1410.11 239.428L1410.11 239.429L1410.82 240.136ZM1410.82 238.154L1410.11 238.86L1410.11 238.861L1410.82 238.154ZM1408.83 238.154L1408.13 237.437L1408.13 237.443L1408.12 237.448L1408.83 238.154ZM1406 241L1405.29 241.707L1406 242.416L1406.71 241.705L1406 241ZM1403.15 238.154L1403.86 237.446L1403.85 237.437L1403.15 238.154ZM1401.17 238.154L1401.88 238.861L1401.88 238.86L1401.17 238.154ZM1401.17 240.136L1401.88 239.429L1401.87 239.428L1401.17 240.136ZM1404.02 242.986L1404.72 243.695L1405.43 242.988L1404.72 242.279L1404.02 242.986ZM1401.17 245.818L1400.46 245.108L1400.46 245.115L1400.45 245.121L1401.17 245.818ZM1401.17 247.8L1401.88 247.093L1401.87 247.092L1401.17 247.8ZM1403.15 247.8L1402.45 247.091L1402.45 247.093L1403.15 247.8ZM1406 244.97L1406.71 244.26L1406 243.56L1405.3 244.26L1406 244.97ZM1408.85 247.8L1409.58 247.115L1409.57 247.103L1409.55 247.091L1408.85 247.8ZM1412.94 226H1399.07V228H1412.94V226ZM1423 236.472C1423 233.424 1422.02 230.795 1420.23 228.921C1418.43 227.043 1415.9 226 1412.94 226V228C1415.41 228 1417.41 228.861 1418.78 230.303C1420.16 231.749 1421 233.856 1421 236.472H1423ZM1423 249.546V236.472H1421V249.546H1423ZM1412.94 260C1415.9 260 1418.43 258.958 1420.23 257.082C1422.02 255.211 1423 252.586 1423 249.546H1421C1421 252.153 1420.16 254.256 1418.78 255.699C1417.41 257.139 1415.41 258 1412.94 258V260ZM1399.07 260H1412.94V258H1399.07V260ZM1389 249.546C1389 252.587 1389.99 255.212 1391.78 257.083C1393.58 258.958 1396.12 260 1399.07 260V258C1396.6 258 1394.61 257.139 1393.22 255.699C1391.84 254.254 1391 252.152 1391 249.546H1389ZM1389 236.472V249.546H1391V236.472H1389ZM1399.07 226C1396.12 226 1393.58 227.043 1391.78 228.92C1389.99 230.794 1389 233.423 1389 236.472H1391C1391 233.857 1391.84 231.75 1393.22 230.304C1394.61 228.861 1396.6 228 1399.07 228V226ZM1410.11 246.541C1410.26 246.695 1410.26 246.941 1410.11 247.092L1411.52 248.508C1412.46 247.574 1412.46 246.06 1411.52 245.126L1410.11 246.541ZM1407.26 243.693L1410.11 246.541L1411.52 245.126L1408.68 242.278L1407.26 243.693ZM1410.11 239.429L1407.26 242.279L1408.68 243.692L1411.52 240.843L1410.11 239.429ZM1410.11 238.861C1410.26 239.015 1410.26 239.277 1410.11 239.428L1411.52 240.844C1412.46 239.91 1412.46 238.38 1411.52 237.446L1410.11 238.861ZM1409.53 238.87C1409.71 238.697 1409.96 238.711 1410.11 238.86L1411.52 237.447C1410.58 236.504 1409.08 236.519 1408.13 237.437L1409.53 238.87ZM1406.71 241.705L1409.54 238.859L1408.12 237.448L1405.29 240.295L1406.71 241.705ZM1402.45 238.861L1405.29 241.707L1406.71 240.293L1403.86 237.446L1402.45 238.861ZM1401.88 238.86C1402.02 238.711 1402.28 238.697 1402.45 238.87L1403.85 237.437C1402.91 236.519 1401.4 236.504 1400.46 237.447L1401.88 238.86ZM1401.87 239.428C1401.72 239.277 1401.72 239.015 1401.88 238.861L1400.46 237.446C1399.53 238.38 1399.53 239.91 1400.46 240.844L1401.87 239.428ZM1404.72 242.279L1401.88 239.429L1400.46 240.843L1403.31 243.692L1404.72 242.279ZM1401.87 246.527L1404.72 243.695L1403.31 242.276L1400.46 245.108L1401.87 246.527ZM1401.87 247.092C1401.73 246.946 1401.71 246.693 1401.89 246.514L1400.45 245.121C1399.54 246.062 1399.52 247.569 1400.46 248.508L1401.87 247.092ZM1402.16 247.218C1402.07 247.218 1401.96 247.177 1401.88 247.093L1400.46 248.507C1400.92 248.967 1401.54 249.218 1402.16 249.218V247.218ZM1402.45 247.093C1402.36 247.182 1402.26 247.218 1402.16 247.218V249.218C1402.8 249.218 1403.4 248.962 1403.86 248.507L1402.45 247.093ZM1405.3 244.26L1402.45 247.091L1403.86 248.509L1406.71 245.679L1405.3 244.26ZM1409.55 247.091L1406.71 244.26L1405.3 245.679L1408.14 248.509L1409.55 247.091ZM1409.82 247.218C1409.77 247.218 1409.72 247.208 1409.69 247.192C1409.65 247.178 1409.61 247.155 1409.58 247.115L1408.12 248.485C1408.6 248.995 1409.22 249.218 1409.82 249.218V247.218ZM1410.11 247.093C1410.02 247.182 1409.92 247.218 1409.82 247.218V249.218C1410.46 249.218 1411.07 248.962 1411.52 248.507L1410.11 247.093Z" fill="url(#paint12_linear)" mask="url(#path-12-inside-6)"/>
<mask id="path-14-inside-7" fill="white">
<path fill-rule="evenodd" clip-rule="evenodd" d="M1332.47 396H1351.55C1359.01 396 1364 401.236 1364 409.024V427C1364 434.766 1359.01 440 1351.55 440H1332.47C1325.02 440 1320 434.766 1320 427V409.024C1320 401.236 1325.02 396 1332.47 396ZM1348.62 424.6C1349.37 423.854 1349.37 422.644 1348.62 421.896L1344.71 417.98L1348.62 414.062C1349.37 413.316 1349.37 412.084 1348.62 411.336C1347.87 410.586 1346.66 410.586 1345.89 411.336L1342 415.25L1338.08 411.336C1337.31 410.586 1336.1 410.586 1335.36 411.336C1334.61 412.084 1334.61 413.316 1335.36 414.062L1339.27 417.98L1335.36 421.874C1334.61 422.644 1334.61 423.854 1335.36 424.6C1335.73 424.974 1336.24 425.174 1336.72 425.174C1337.23 425.174 1337.71 424.974 1338.08 424.6L1342 420.708L1345.92 424.6C1346.29 424.998 1346.77 425.174 1347.26 425.174C1347.76 425.174 1348.25 424.974 1348.62 424.6Z"/>
</mask>
<path fill-rule="evenodd" clip-rule="evenodd" d="M1332.47 396H1351.55C1359.01 396 1364 401.236 1364 409.024V427C1364 434.766 1359.01 440 1351.55 440H1332.47C1325.02 440 1320 434.766 1320 427V409.024C1320 401.236 1325.02 396 1332.47 396ZM1348.62 424.6C1349.37 423.854 1349.37 422.644 1348.62 421.896L1344.71 417.98L1348.62 414.062C1349.37 413.316 1349.37 412.084 1348.62 411.336C1347.87 410.586 1346.66 410.586 1345.89 411.336L1342 415.25L1338.08 411.336C1337.31 410.586 1336.1 410.586 1335.36 411.336C1334.61 412.084 1334.61 413.316 1335.36 414.062L1339.27 417.98L1335.36 421.874C1334.61 422.644 1334.61 423.854 1335.36 424.6C1335.73 424.974 1336.24 425.174 1336.72 425.174C1337.23 425.174 1337.71 424.974 1338.08 424.6L1342 420.708L1345.92 424.6C1346.29 424.998 1346.77 425.174 1347.26 425.174C1347.76 425.174 1348.25 424.974 1348.62 424.6Z" fill="url(#paint13_radial)"/>
<path d="M1348.62 424.6L1347.92 423.892L1347.92 423.893L1348.62 424.6ZM1344.71 417.98L1344 417.273L1343.29 417.98L1344 418.687L1344.71 417.98ZM1348.62 414.062L1347.92 413.354L1347.91 413.355L1348.62 414.062ZM1348.62 411.336L1347.91 412.042L1347.92 412.043L1348.62 411.336ZM1345.89 411.336L1345.2 410.62L1345.19 410.625L1345.19 410.631L1345.89 411.336ZM1342 415.25L1341.29 415.957L1342 416.665L1342.71 415.955L1342 415.25ZM1338.08 411.336L1338.79 410.629L1338.78 410.62L1338.08 411.336ZM1335.36 411.336L1336.06 412.043L1336.06 412.042L1335.36 411.336ZM1335.36 414.062L1336.06 413.355L1336.06 413.354L1335.36 414.062ZM1339.27 417.98L1339.98 418.689L1340.69 417.982L1339.98 417.273L1339.27 417.98ZM1335.36 421.874L1334.65 421.165L1334.64 421.171L1334.64 421.177L1335.36 421.874ZM1335.36 424.6L1336.06 423.893L1336.06 423.892L1335.36 424.6ZM1338.08 424.6L1337.38 423.89L1337.38 423.893L1338.08 424.6ZM1342 420.708L1342.71 419.999L1342 419.298L1341.3 419.999L1342 420.708ZM1345.92 424.6L1346.65 423.915L1346.63 423.903L1346.62 423.89L1345.92 424.6ZM1351.55 395H1332.47V397H1351.55V395ZM1365 409.024C1365 404.914 1363.68 401.397 1361.29 398.901C1358.9 396.4 1355.52 395 1351.55 395V397C1355.03 397 1357.88 398.218 1359.85 400.282C1361.82 402.351 1363 405.346 1363 409.024H1365ZM1365 427V409.024H1363V427H1365ZM1351.55 441C1355.52 441 1358.9 439.601 1361.29 437.104C1363.68 434.611 1365 431.099 1365 427H1363C1363 430.667 1361.82 433.656 1359.85 435.721C1357.88 437.782 1355.03 439 1351.55 439V441ZM1332.47 441H1351.55V439H1332.47V441ZM1319 427C1319 431.101 1320.33 434.612 1322.72 437.105C1325.11 439.601 1328.5 441 1332.47 441V439C1328.99 439 1326.14 437.782 1324.16 435.72C1322.18 433.654 1321 430.666 1321 427H1319ZM1319 409.024V427H1321V409.024H1319ZM1332.47 395C1328.5 395 1325.11 396.4 1322.72 398.9C1320.33 401.396 1319 404.913 1319 409.024H1321C1321 405.347 1322.18 402.352 1324.16 400.283C1326.14 398.218 1328.99 397 1332.47 397V395ZM1347.92 422.603C1348.27 422.961 1348.27 423.537 1347.92 423.892L1349.33 425.308C1350.47 424.171 1350.47 422.327 1349.33 421.189L1347.92 422.603ZM1344 418.687L1347.92 422.603L1349.33 421.189L1345.41 417.273L1344 418.687ZM1347.91 413.355L1344 417.273L1345.41 418.687L1349.33 414.769L1347.91 413.355ZM1347.92 412.043C1348.27 412.401 1348.27 412.999 1347.92 413.354L1349.33 414.77C1350.47 413.633 1350.47 411.767 1349.33 410.629L1347.92 412.043ZM1346.59 412.052C1346.98 411.675 1347.56 411.689 1347.91 412.042L1349.33 410.63C1348.19 409.482 1346.35 409.497 1345.2 410.62L1346.59 412.052ZM1342.71 415.955L1346.6 412.041L1345.19 410.631L1341.29 414.544L1342.71 415.955ZM1337.38 412.043L1341.29 415.957L1342.71 414.542L1338.79 410.629L1337.38 412.043ZM1336.06 412.042C1336.42 411.689 1337 411.675 1337.39 412.052L1338.78 410.62C1337.63 409.497 1335.79 409.482 1334.65 410.63L1336.06 412.042ZM1336.06 413.354C1335.71 412.999 1335.71 412.401 1336.06 412.043L1334.65 410.629C1333.51 411.767 1333.51 413.633 1334.65 414.77L1336.06 413.354ZM1339.98 417.273L1336.06 413.355L1334.65 414.769L1338.56 418.687L1339.98 417.273ZM1336.06 422.583L1339.98 418.689L1338.57 417.271L1334.65 421.165L1336.06 422.583ZM1336.06 423.892C1335.71 423.543 1335.7 422.959 1336.07 422.571L1334.64 421.177C1333.52 422.329 1333.5 424.165 1334.65 425.308L1336.06 423.892ZM1336.72 424.174C1336.5 424.174 1336.25 424.079 1336.06 423.893L1334.65 425.307C1335.21 425.868 1335.97 426.174 1336.72 426.174V424.174ZM1337.38 423.893C1337.19 424.083 1336.96 424.174 1336.72 424.174V426.174C1337.5 426.174 1338.23 425.864 1338.79 425.307L1337.38 423.893ZM1341.3 419.999L1337.38 423.89L1338.79 425.309L1342.71 421.417L1341.3 419.999ZM1346.62 423.89L1342.71 419.999L1341.3 421.417L1345.21 425.309L1346.62 423.89ZM1347.26 424.174C1347.02 424.174 1346.81 424.093 1346.65 423.915L1345.19 425.284C1345.77 425.903 1346.53 426.174 1347.26 426.174V424.174ZM1347.92 423.893C1347.72 424.083 1347.49 424.174 1347.26 424.174V426.174C1348.04 426.174 1348.77 425.864 1349.33 425.307L1347.92 423.893Z" fill="url(#paint14_linear)" mask="url(#path-14-inside-7)"/>
<mask id="path-16-inside-8" fill="white">
<path fill-rule="evenodd" clip-rule="evenodd" d="M1769.47 448H1788.55C1796.01 448 1801 453.236 1801 461.024V479C1801 486.766 1796.01 492 1788.55 492H1769.47C1762.02 492 1757 486.766 1757 479V461.024C1757 453.236 1762.02 448 1769.47 448ZM1785.62 476.6C1786.37 475.854 1786.37 474.644 1785.62 473.896L1781.71 469.98L1785.62 466.062C1786.37 465.316 1786.37 464.084 1785.62 463.336C1784.87 462.586 1783.66 462.586 1782.89 463.336L1779 467.25L1775.08 463.336C1774.31 462.586 1773.1 462.586 1772.36 463.336C1771.61 464.084 1771.61 465.316 1772.36 466.062L1776.27 469.98L1772.36 473.874C1771.61 474.644 1771.61 475.854 1772.36 476.6C1772.73 476.974 1773.24 477.174 1773.72 477.174C1774.23 477.174 1774.71 476.974 1775.08 476.6L1779 472.708L1782.92 476.6C1783.29 476.998 1783.77 477.174 1784.26 477.174C1784.76 477.174 1785.25 476.974 1785.62 476.6Z"/>
</mask>
<path fill-rule="evenodd" clip-rule="evenodd" d="M1769.47 448H1788.55C1796.01 448 1801 453.236 1801 461.024V479C1801 486.766 1796.01 492 1788.55 492H1769.47C1762.02 492 1757 486.766 1757 479V461.024C1757 453.236 1762.02 448 1769.47 448ZM1785.62 476.6C1786.37 475.854 1786.37 474.644 1785.62 473.896L1781.71 469.98L1785.62 466.062C1786.37 465.316 1786.37 464.084 1785.62 463.336C1784.87 462.586 1783.66 462.586 1782.89 463.336L1779 467.25L1775.08 463.336C1774.31 462.586 1773.1 462.586 1772.36 463.336C1771.61 464.084 1771.61 465.316 1772.36 466.062L1776.27 469.98L1772.36 473.874C1771.61 474.644 1771.61 475.854 1772.36 476.6C1772.73 476.974 1773.24 477.174 1773.72 477.174C1774.23 477.174 1774.71 476.974 1775.08 476.6L1779 472.708L1782.92 476.6C1783.29 476.998 1783.77 477.174 1784.26 477.174C1784.76 477.174 1785.25 476.974 1785.62 476.6Z" fill="url(#paint15_radial)"/>
<path d="M1785.62 476.6L1784.92 475.892L1784.92 475.893L1785.62 476.6ZM1781.71 469.98L1781 469.273L1780.29 469.98L1781 470.687L1781.71 469.98ZM1785.62 466.062L1784.92 465.354L1784.91 465.355L1785.62 466.062ZM1785.62 463.336L1784.91 464.042L1784.92 464.043L1785.62 463.336ZM1782.89 463.336L1782.2 462.62L1782.19 462.625L1782.19 462.631L1782.89 463.336ZM1779 467.25L1778.29 467.957L1779 468.665L1779.71 467.955L1779 467.25ZM1775.08 463.336L1775.79 462.629L1775.78 462.62L1775.08 463.336ZM1772.36 463.336L1773.06 464.043L1773.06 464.042L1772.36 463.336ZM1772.36 466.062L1773.06 465.355L1773.06 465.354L1772.36 466.062ZM1776.27 469.98L1776.98 470.689L1777.69 469.982L1776.98 469.273L1776.27 469.98ZM1772.36 473.874L1771.65 473.165L1771.64 473.171L1771.64 473.177L1772.36 473.874ZM1772.36 476.6L1773.06 475.893L1773.06 475.892L1772.36 476.6ZM1775.08 476.6L1774.38 475.89L1774.38 475.893L1775.08 476.6ZM1779 472.708L1779.71 471.999L1779 471.298L1778.3 471.999L1779 472.708ZM1782.92 476.6L1783.65 475.915L1783.63 475.903L1783.62 475.89L1782.92 476.6ZM1788.55 447H1769.47V449H1788.55V447ZM1802 461.024C1802 456.914 1800.68 453.397 1798.29 450.901C1795.9 448.4 1792.52 447 1788.55 447V449C1792.03 449 1794.88 450.218 1796.85 452.282C1798.82 454.351 1800 457.346 1800 461.024H1802ZM1802 479V461.024H1800V479H1802ZM1788.55 493C1792.52 493 1795.9 491.601 1798.29 489.104C1800.68 486.611 1802 483.099 1802 479H1800C1800 482.667 1798.82 485.656 1796.85 487.721C1794.88 489.782 1792.03 491 1788.55 491V493ZM1769.47 493H1788.55V491H1769.47V493ZM1756 479C1756 483.101 1757.33 486.612 1759.72 489.105C1762.11 491.601 1765.5 493 1769.47 493V491C1765.99 491 1763.14 489.782 1761.16 487.72C1759.18 485.654 1758 482.666 1758 479H1756ZM1756 461.024V479H1758V461.024H1756ZM1769.47 447C1765.5 447 1762.11 448.4 1759.72 450.9C1757.33 453.396 1756 456.913 1756 461.024H1758C1758 457.347 1759.18 454.352 1761.16 452.283C1763.14 450.218 1765.99 449 1769.47 449V447ZM1784.92 474.603C1785.27 474.961 1785.27 475.537 1784.92 475.892L1786.33 477.308C1787.47 476.171 1787.47 474.327 1786.33 473.189L1784.92 474.603ZM1781 470.687L1784.92 474.603L1786.33 473.189L1782.41 469.273L1781 470.687ZM1784.91 465.355L1781 469.273L1782.41 470.687L1786.33 466.769L1784.91 465.355ZM1784.92 464.043C1785.27 464.401 1785.27 464.999 1784.92 465.354L1786.33 466.77C1787.47 465.633 1787.47 463.767 1786.33 462.629L1784.92 464.043ZM1783.59 464.052C1783.98 463.675 1784.56 463.689 1784.91 464.042L1786.33 462.63C1785.19 461.482 1783.35 461.497 1782.2 462.62L1783.59 464.052ZM1779.71 467.955L1783.6 464.041L1782.19 462.631L1778.29 466.544L1779.71 467.955ZM1774.38 464.043L1778.29 467.957L1779.71 466.542L1775.79 462.629L1774.38 464.043ZM1773.06 464.042C1773.42 463.689 1774 463.675 1774.39 464.052L1775.78 462.62C1774.63 461.497 1772.79 461.482 1771.65 462.63L1773.06 464.042ZM1773.06 465.354C1772.71 464.999 1772.71 464.401 1773.06 464.043L1771.65 462.629C1770.51 463.767 1770.51 465.633 1771.65 466.77L1773.06 465.354ZM1776.98 469.273L1773.06 465.355L1771.65 466.769L1775.56 470.687L1776.98 469.273ZM1773.06 474.583L1776.98 470.689L1775.57 469.271L1771.65 473.165L1773.06 474.583ZM1773.06 475.892C1772.71 475.543 1772.7 474.959 1773.07 474.571L1771.64 473.177C1770.52 474.329 1770.5 476.165 1771.65 477.308L1773.06 475.892ZM1773.72 476.174C1773.5 476.174 1773.25 476.079 1773.06 475.893L1771.65 477.307C1772.21 477.868 1772.97 478.174 1773.72 478.174V476.174ZM1774.38 475.893C1774.19 476.083 1773.96 476.174 1773.72 476.174V478.174C1774.5 478.174 1775.23 477.864 1775.79 477.307L1774.38 475.893ZM1778.3 471.999L1774.38 475.89L1775.79 477.309L1779.71 473.417L1778.3 471.999ZM1783.62 475.89L1779.71 471.999L1778.3 473.417L1782.21 477.309L1783.62 475.89ZM1784.26 476.174C1784.02 476.174 1783.81 476.093 1783.65 475.915L1782.19 477.284C1782.77 477.903 1783.53 478.174 1784.26 478.174V476.174ZM1784.92 475.893C1784.72 476.083 1784.49 476.174 1784.26 476.174V478.174C1785.04 478.174 1785.77 477.864 1786.33 477.307L1784.92 475.893Z" fill="url(#paint16_linear)" mask="url(#path-16-inside-8)"/>
</g>
<defs>
<filter id="filter0_f" x="1081" y="12" width="1395" height="960" filterUnits="userSpaceOnUse" color-interpolation-filters="sRGB">
<feFlood flood-opacity="0" result="BackgroundImageFix"/>
<feBlend mode="normal" in="SourceGraphic" in2="BackgroundImageFix" result="shape"/>
<feGaussianBlur stdDeviation="75" result="effect1_foregroundBlur"/>
</filter>
<linearGradient id="paint0_linear" x1="2326" y1="220.389" x2="1325.1" y2="850.067" gradientUnits="userSpaceOnUse">
<stop stop-color="#441CE3"/>
<stop offset="1" stop-color="#CB91D0"/>
</linearGradient>
<radialGradient id="paint1_radial" cx="0" cy="0" r="1" gradientUnits="userSpaceOnUse" gradientTransform="translate(1555.43 329.476) rotate(90) scale(221.524)">
<stop stop-color="#EEECFF"/>
<stop offset="1" stop-color="white" stop-opacity="0"/>
</radialGradient>
<linearGradient id="paint2_linear" x1="1555" y1="285" x2="1555" y2="551" gradientUnits="userSpaceOnUse">
<stop stop-color="white"/>
<stop offset="1" stop-color="white" stop-opacity="0"/>
</linearGradient>
<radialGradient id="paint3_radial" cx="0" cy="0" r="1" gradientUnits="userSpaceOnUse" gradientTransform="translate(1472.62 638.875) rotate(90) scale(64.1254)">
<stop stop-color="#EEECFF"/>
<stop offset="1" stop-color="white" stop-opacity="0"/>
</radialGradient>
<linearGradient id="paint4_linear" x1="1472.5" y1="626" x2="1472.5" y2="703" gradientUnits="userSpaceOnUse">
<stop stop-color="white"/>
<stop offset="1" stop-color="white" stop-opacity="0"/>
</linearGradient>
<radialGradient id="paint5_radial" cx="0" cy="0" r="1" gradientUnits="userSpaceOnUse" gradientTransform="translate(1798.59 729.196) rotate(90) scale(45.8039)">
<stop stop-color="#EEECFF"/>
<stop offset="1" stop-color="white" stop-opacity="0"/>
</radialGradient>
<linearGradient id="paint6_linear" x1="1798.5" y1="720" x2="1798.5" y2="775" gradientUnits="userSpaceOnUse">
<stop stop-color="white"/>
<stop offset="1" stop-color="white" stop-opacity="0"/>
</linearGradient>
<radialGradient id="paint7_radial" cx="0" cy="0" r="1" gradientUnits="userSpaceOnUse" gradientTransform="translate(1707.63 189.878) rotate(90) scale(69.1222)">
<stop stop-color="#EEECFF"/>
<stop offset="1" stop-color="white" stop-opacity="0"/>
</radialGradient>
<linearGradient id="paint8_linear" x1="1707.5" y1="176" x2="1707.5" y2="259" gradientUnits="userSpaceOnUse">
<stop stop-color="white"/>
<stop offset="1" stop-color="white" stop-opacity="0"/>
</linearGradient>
<radialGradient id="paint9_radial" cx="0" cy="0" r="1" gradientUnits="userSpaceOnUse" gradientTransform="translate(1666.07 618.357) rotate(90) scale(36.6431)">
<stop stop-color="#EEECFF"/>
<stop offset="1" stop-color="white" stop-opacity="0"/>
</radialGradient>
<linearGradient id="paint10_linear" x1="1666" y1="611" x2="1666" y2="655" gradientUnits="userSpaceOnUse">
<stop stop-color="white"/>
<stop offset="1" stop-color="white" stop-opacity="0"/>
</linearGradient>
<radialGradient id="paint11_radial" cx="0" cy="0" r="1" gradientUnits="userSpaceOnUse" gradientTransform="translate(1406.05 232.35) rotate(90) scale(26.6495)">
<stop stop-color="#EEECFF"/>
<stop offset="1" stop-color="white" stop-opacity="0"/>
</radialGradient>
<linearGradient id="paint12_linear" x1="1406" y1="227" x2="1406" y2="259" gradientUnits="userSpaceOnUse">
<stop stop-color="white"/>
<stop offset="1" stop-color="white" stop-opacity="0"/>
</linearGradient>
<radialGradient id="paint13_radial" cx="0" cy="0" r="1" gradientUnits="userSpaceOnUse" gradientTransform="translate(1342.07 403.357) rotate(90) scale(36.6431)">
<stop stop-color="#EEECFF"/>
<stop offset="1" stop-color="white" stop-opacity="0"/>
</radialGradient>
<linearGradient id="paint14_linear" x1="1342" y1="396" x2="1342" y2="440" gradientUnits="userSpaceOnUse">
<stop stop-color="white"/>
<stop offset="1" stop-color="white" stop-opacity="0"/>
</linearGradient>
<radialGradient id="paint15_radial" cx="0" cy="0" r="1" gradientUnits="userSpaceOnUse" gradientTransform="translate(1779.07 455.357) rotate(90) scale(36.6431)">
<stop stop-color="#EEECFF"/>
<stop offset="1" stop-color="white" stop-opacity="0"/>
</radialGradient>
<linearGradient id="paint16_linear" x1="1779" y1="448" x2="1779" y2="492" gradientUnits="userSpaceOnUse">
<stop stop-color="white"/>
<stop offset="1" stop-color="white" stop-opacity="0"/>
</linearGradient>
<clipPath id="clip0">
<rect width="2298" height="1399" fill="white"/>
</clipPath>
</defs>
</svg>
