<?xml version="1.0" encoding="UTF-8"?>
<svg width="800px" height="800px" viewBox="0 0 800 800" version="1.1" xmlns="http://www.w3.org/2000/svg" xmlns:xlink="http://www.w3.org/1999/xlink">
    <!-- Generator: Sketch 50.2 (55047) - http://www.bohemiancoding.com/sketch -->
    <title>export_404</title>
    <desc>Created with Sketch.</desc>
    <defs>
        <linearGradient x1="119.31371%" y1="126.317103%" x2="57.5207863%" y2="-8.79480055%" id="linearGradient-1">
            <stop stop-color="#FF9A9E" offset="0%"></stop>
            <stop stop-color="#FECFEF" offset="100%"></stop>
        </linearGradient>
        <linearGradient x1="49.9952942%" y1="0%" x2="49.9952942%" y2="131.410846%" id="linearGradient-2">
            <stop stop-color="#E7E8EE" offset="0%"></stop>
            <stop stop-color="#FFFFFF" offset="100%"></stop>
        </linearGradient>
        <linearGradient x1="19.0584347%" y1="-2.09123884%" x2="79.6395502%" y2="95.8667833%" id="linearGradient-3">
            <stop stop-color="#FBFBFB" offset="0%"></stop>
            <stop stop-color="#E7E8EE" offset="100%"></stop>
        </linearGradient>
        <path d="M14.6889344,26.6280484 C22.3501502,26.6280484 28.7379194,20.6671567 28.9564163,13.3140242 C29.1749132,5.96089167 22.781362,0 14.6760199,0 C6.57067794,0 0.182908691,5.96089167 0.408537996,13.3140242 C0.6341673,20.6671567 7.02771853,26.6280484 14.6889344,26.6280484 Z" id="path-4"></path>
        <polygon id="path-6" points="2.94451796e-05 0.0713189686 51.7954748 0.0713189686 51.7954748 51.8275571 2.94451796e-05 51.8275571"></polygon>
        <polygon id="path-8" points="0.11710641 0.0837275867 33.1718836 0.0837275867 33.1718836 50.4498359 0.11710641 50.4498359"></polygon>
        <polygon id="path-10" points="0 0.109950564 8.3943627 0.109950564 8.3943627 2.61836015 0 2.61836015"></polygon>
    </defs>
    <g id="export_404" stroke="none" stroke-width="1" fill="none" fill-rule="evenodd">
        <g id="illustration-2" transform="translate(-53.000000, 35.000000)">
            <path d="M287.182984,26.5351158 C352.301864,47.6091869 411.223909,62.2761405 469.190842,72.8318555 C492.036184,76.991967 514.176573,80.4284619 538.64356,83.7430759 C552.928009,85.6782318 598.314569,91.3817092 596.874502,91.1956693 C645.482242,97.4752225 671.627837,102.787099 696.812547,112.986942 C727.061062,125.237634 751.866271,144.130278 775.787968,173.876807 C777.917555,176.52494 780.042518,179.262615 782.165474,182.093223 C826.468455,241.163865 836.443045,316.079216 818.343576,397.123781 C804.088438,460.954465 772.196268,525.420377 738.967539,564.697576 C714.683486,593.401941 706.443109,602.687977 690.046529,618.477259 C669.159741,638.590441 647.562296,655.258564 624.23779,668.289964 C596.459344,683.809781 567.076832,693.630826 535.770205,696.903738 C461.873847,704.62914 380.719044,675.65933 291.293181,603.279269 C231.764086,555.09724 179.691498,489.511848 140.570224,415.688508 C103.342066,345.437553 79.7086501,271.003875 73.7338512,205.413657 C67.4431848,136.355905 80.8895714,80.2931122 114.463554,46.5482777 C151.616791,9.20597463 210.326953,1.66261374 287.182984,26.5351158 Z" id="fond" stroke="#FFD7DE" stroke-width="20.2499989" fill="url(#linearGradient-1)" transform="translate(449.532737, 355.084111) scale(-1, -1) translate(-449.532737, -355.084111) "></path>
            <g id="typography" opacity="0.5" transform="translate(275.695504, 173.949048) rotate(-10.000000) translate(-275.695504, -173.949048) translate(229.906792, 122.121491)" fill="#FFFFFF" fill-rule="nonzero">
                <path d="M89.4974281,0.161537292 L2.13418641,0.161537292 C0.983887482,0.161537292 0.0541904848,1.08740996 0.0541904848,2.22810058 L0.0541904848,20.8278968 C0.0541904848,21.6627079 0.561696816,22.4171137 1.33758186,22.7375243 C2.11541697,23.0579348 3.00781883,22.8801711 3.60478473,22.2889979 L10.9577763,14.9834921 C12.5302659,13.4211576 14.6207435,12.5614014 16.8423634,12.5614014 L37.495336,12.5614014 C38.6434411,12.5614014 39.5753319,13.4892116 39.5753319,14.6279647 L39.5753319,91.0937127 L22.934877,91.0937127 C21.7845781,91.0937127 20.8548811,92.0195854 20.8548811,93.160276 L20.8548811,101.427014 C20.8548811,102.567704 21.7845781,103.493577 22.934877,103.493577 L68.6964938,103.493577 C69.8467927,103.493577 70.7764897,102.567704 70.7764897,101.427014 L70.7764897,93.1605182 C70.7764897,92.0198276 69.8467927,91.0939549 68.6964938,91.0939549 L52.055795,91.0939549 L52.055795,14.6279647 C52.055795,13.4892116 52.9876859,12.5614014 54.135791,12.5614014 L74.7887636,12.5614014 C77.0103835,12.5614014 79.1008611,13.4211576 80.6733507,14.9815546 L88.0263423,22.2892401 C88.6233082,22.8823508 89.5176601,23.0601145 90.2935451,22.7377665 C91.0694302,22.4173559 91.5769365,21.6631923 91.5769365,20.8281389 L91.5769365,2.22810058 C91.577424,1.08740996 90.647727,0.161537292 89.4974281,0.161537292 Z" id="Shape"></path>
            </g>
            <g transform="translate(219.623734, 24.588335)">
                <path d="M31.3868897,548.161059 L480.989036,548.161059 C483.158391,548.161059 484.917,549.919668 484.917,552.089023 L484.917,552.089023 C484.917,554.258377 483.158391,556.016987 480.989036,556.016987 L31.3868897,556.016987 C29.2175351,556.016987 27.4589257,554.258377 27.4589257,552.089023 L27.4589257,552.089023 C27.4589257,549.919668 29.2175351,548.161059 31.3868897,548.161059 Z" id="Rectangle-11" fill="#FFA9B6" opacity="0.35"></path>
                <g id="chaise" transform="translate(134.625139, 345.332591)">
                    <path d="M117.949818,5.33727811 L115.377401,5.91210606 L125.284371,50.2906699 L88.9668952,85.0086962 L50.7187882,48.444892 L60.2135393,5.91210606 L57.6411217,5.33727811 L26.5325278,144.693241 L13.253856,204.176042 C13.0952625,204.886473 13.5425261,205.590982 14.2529237,205.749726 L14.2529237,205.749726 C14.9631261,205.908426 15.6675111,205.461346 15.8262117,204.751144 C15.826232,204.751052 15.8262524,204.750961 15.8262728,204.75087 L28.723827,146.97515 L88.9668952,89.3855628 L146.231652,144.128169 L159.764669,204.75087 C159.923217,205.461105 160.627506,205.908336 161.337741,205.749787 C161.337833,205.749767 161.337925,205.749746 161.338016,205.749726 L161.338016,205.749726 C162.048415,205.590981 162.495679,204.886474 162.337088,204.176041 L117.949818,5.33727811 Z M49.9135898,52.0520693 L86.677549,87.1969977 L29.9654929,141.411184 L49.9135898,52.0520693 Z M91.2557143,87.1969977 L126.08957,53.8975835 L144.989723,138.564204 L91.2557143,87.1969977 Z" id="Page-1" fill="#FFFFFF"></path>
                    <g id="vilotet" transform="translate(0.000000, 0.660902)">
                        <path d="M87.8943501,42.0344224 C142.116747,42.0344224 181.194652,31.4030831 175.177294,18.2886614 C169.159936,5.17423974 130.082031,0.542900414 87.8943501,0.542900414 C45.7066695,0.542900414 6.62876446,5.17423974 0.611406204,18.2886614 C-5.40595206,31.4030831 33.671953,42.0344224 87.8943501,42.0344224 Z" id="Oval-4" fill="#FFD7DE"></path>
                        <path d="M87.8943501,38.4599664 C136.135819,38.4599664 170.903288,29.0013027 165.549666,17.3334496 C160.196045,5.66559661 125.428575,2.20693288 87.8943501,2.20693288 C50.3601249,2.20693288 15.5926556,5.66559661 10.239034,17.3334496 C4.8854123,29.0013027 39.6528816,38.4599664 87.8943501,38.4599664 Z" id="Oval-4-Copy" fill="#FFFFFF"></path>
                        <path d="M87.8943501,38.4599664 C136.135819,38.4599664 170.903288,29.0013027 165.549666,17.3334496 C160.196045,5.66559661 125.428575,2.20693288 87.8943501,2.20693288 C50.3601249,2.20693288 15.5926556,5.66559661 10.239034,17.3334496 C4.8854123,29.0013027 39.6528816,38.4599664 87.8943501,38.4599664 Z" id="Oval-4-Copy-2" opacity="0.540987319"></path>
                    </g>
                </g>
                <g id="phone" transform="translate(84.378990, 219.245704)">
                    <path d="M33.3860492,42.3485939 L12.8340444,42.3485939 L12.8340444,52.9355282 L36.847733,52.9355282 C36.847733,52.9355282 36.1984439,42.3485939 33.3860492,42.3485939" id="Fill-1" fill="#171717"></path>
                    <path d="M36.4447161,52.935671 L9.18672682,52.935671 C9.18672682,52.935671 7.67219545,49.6947436 10.7012582,48.6141964 L34.7142317,48.6141964 C34.7142317,48.6141964 37.9592475,49.9111387 36.4447161,52.935671" id="Fill-4" fill="#262626"></path>
                    <path d="M2.56340512,0.000214252582 L22.0234886,0.000214252582 C22.0234886,0.000214252582 24.3939661,1.05148025 24.730767,6.4277917 L31.4932425,38.0864673 C31.8221776,39.6283717 30.6451622,41.0810042 29.0662739,41.0810042 L7.6096978,41.0810042 L0.0370409466,2.99046612 C-0.230397548,1.42785062 0.975220907,0.000214252582 2.56340512,0.000214252582" id="Fill-7" fill="#FFFFFF"></path>
                    <path d="M0.586863029,5.7554671 L23.4600051,5.7554671" id="Stroke-10" stroke="#F0F1F4" stroke-width="0.714419957"></path>
                    <path d="M4.28230527,2.83599 C4.28230527,3.26735187 3.93263301,3.61658358 3.50072699,3.61658358 C3.06953605,3.61658358 2.7198638,3.26735187 2.7198638,2.83599 C2.7198638,2.40462814 3.06953605,2.05539643 3.50072699,2.05539643 C3.93263301,2.05539643 4.28230527,2.40462814 4.28230527,2.83599" id="Fill-12" fill="#E4E4E4"></path>
                    <path d="M16.3248319,20.6115269 C15.9115178,20.3915609 15.5718566,20.0887506 15.537533,19.6795281 C15.5146505,19.3667194 15.7735081,18.978208 16.1238955,18.6411173 C16.1703754,18.5961242 16.1732357,18.5139941 16.1310462,18.4654302 C15.8929259,18.1926152 15.4681706,17.9469389 15.0262535,17.9783626 C14.8002894,17.9955028 14.5943475,18.0962015 14.4091428,18.1890443 C14.2267983,18.2811729 14.0601856,18.3625889 13.9557845,18.3768724 C13.8807015,18.3811575 13.7398314,18.3290227 13.5725036,18.2604619 C13.4037456,18.1904727 13.2028092,18.1126276 12.9746999,18.1283394 L12.975415,18.1283394 C12.0658381,18.1969003 11.4809058,19.0117742 11.5545586,19.8416459 C11.605329,20.5422519 11.8856389,21.2157191 12.2231548,21.7156418 C12.3919128,21.9656032 12.5742573,22.172714 12.7544565,22.3191199 C12.9346557,22.4655259 13.1148549,22.5605112 13.2993445,22.5462277 C13.519588,22.5305158 13.707653,22.4448148 13.8656849,22.3676838 C14.0244318,22.2912671 14.1560058,22.2262771 14.2418149,22.2198496 C14.326909,22.213422 14.4470418,22.2577009 14.598638,22.3126924 C14.7509492,22.3669697 14.936869,22.4262462 15.1578275,22.4105344 C15.4781817,22.3869666 15.7570614,22.1427186 15.9730144,21.8277673 C16.1896825,21.5135302 16.3455691,21.1178771 16.3863284,20.7357934 C16.392049,20.6872294 16.3670214,20.636523 16.3248319,20.6115269" id="Fill-14" fill="#EFF0F3"></path>
                    <path d="M13.9205312,18.2507491 C14.2294441,18.1571921 14.528346,18.0115004 14.7285673,17.7651099 C14.9295037,17.5201478 15.016743,17.1730586 14.913772,16.7445534 C14.8887444,16.6445689 14.8122312,16.628857 14.7385784,16.6567099 C14.4432519,16.7802622 14.1643722,16.9045287 13.9691564,17.1337789 C13.7746557,17.3616009 13.6867013,17.687979 13.7560637,18.1464795 C13.7660747,18.2193254 13.8497387,18.2721743 13.9205312,18.2507491" id="Fill-16" fill="#F3F3F5"></path>
                    <path d="M22.0237746,0.000214252581 C22.0237746,0.000214252581 21.1392253,1.66281429 22.8282353,7.3576479 L29.0551188,35.8832366 L30.2950609,41.0810042 L30.6633251,41.0810042 C31.4198757,41.0810042 31.9840708,40.3846834 31.826039,39.6462261 L25.1894169,8.57317422 C25.0671388,8.00326235 24.7710973,6.32352211 24.6674113,5.74932519 C24.3341857,3.90389629 23.9130059,1.10432922 22.0237746,0.000214252581" id="Fill-18" fill="#EDEEF2"></path>
                    <path d="M7.91603643,29.1684179 L24.9133975,29.1684179 C25.8229744,29.1684179 26.6760603,29.6633413 27.0786482,30.4789295 C27.7272223,31.7915836 28.5266774,34.4033226 29.2288823,39.5882351 C29.3919196,40.7959055 30.428065,41.7000514 31.647985,41.7000514 L32.5697182,41.7000514 C34.2730297,41.7000514 35.552301,43.438354 34.857962,44.9923994 C34.6126909,45.5416002 34.1650532,45.956536 33.3863352,46.0215259 L10.9293675,46.0215259 C9.8660492,46.0215259 8.92572401,45.3380602 8.60250958,44.3253597 C7.67934622,41.4279506 5.88665021,35.4895832 5.48763769,31.886569 C5.32746063,30.436079 6.45585086,29.1684179 7.91603643,29.1684179" id="Fill-20" fill="#262626"></path>
                </g>
                <g id="table" transform="translate(0.000000, 271.692635)">
                    <g id="Group" transform="translate(39.710564, 4.049028)" stroke="#FFFFFF" stroke-linecap="round" stroke-linejoin="round" stroke-width="2.69689558">
                        <path d="M42.4910829,0 L0,275.958083" id="Line-2"></path>
                        <path d="M327.643705,0 L370.134788,275.958083 L327.643705,0 Z" id="Line-2-Copy"></path>
                    </g>
                    <path d="M9.89277997,11.4555365 C4.42943496,11.4555365 0,7.16271059 0,1.8675252 L0,0 L449.494669,0 L449.494669,1.8675252 C449.494669,7.16271059 445.065516,11.4555365 439.602171,11.4555365 L9.89277997,11.4555365 Z" id="Fill-1" fill="url(#linearGradient-2)"></path>
                </g>
                <g id="Ordinateur" transform="translate(141.883105, 179.223605)">
                    <path d="M7.59147756,93.2819573 L157.126141,93.2819573 L164.310537,9.72769509 C164.331642,9.48224678 164.342209,9.23600616 164.342209,8.98965218 C164.342209,4.23167303 160.485105,0.374568841 155.727126,0.374568841 L8.99049264,0.374568841 C8.74413865,0.374568841 8.49789803,0.38513582 8.25244972,0.406240644 C3.51196243,0.813850491 -0.000528741031,4.9872078 0.407081106,9.72769509 L7.59147756,93.2819573 Z" id="Rectangle-10" stroke="#ECECEC" stroke-width="0.749137681" fill="url(#linearGradient-3)"></path>
                    <g id="icon" transform="translate(72.198488, 45.702275)" fill="#FFFFFF" fill-rule="nonzero" stroke="#F2F2F2" stroke-width="0.5">
                        <path d="M15.2714584,0 C15.3302417,0 15.389025,0 15.4511356,0 C15.5953211,1.55468812 14.9154312,2.71634799 14.0891376,3.55758334 C13.2783717,4.3930104 12.1681436,5.20326815 10.3724801,5.08032582 C10.2526953,3.54790284 10.9336943,2.47239942 11.7588788,1.63310016 C12.5241708,0.850915853 13.9272062,0.154887982 15.2714584,0 Z M20.7072502,16.1819219 C20.2026011,17.5594569 19.4827829,18.7027239 18.6043607,19.7637065 C17.8024677,20.7269162 16.8197884,22.023135 15.0651622,22.023135 C13.5489967,22.023135 12.5419167,21.1722191 10.9880411,21.1489859 C9.34432687,21.1257527 8.44039495,21.8605026 6.93753882,22.0454001 C6.76562539,22.0454001 6.59371196,22.0454001 6.42512588,22.0454001 C5.32155256,21.9060009 4.43093007,21.1431776 3.7820955,20.4558622 C1.86886537,18.4248935 0.390409859,15.8014783 0.115348367,12.4442813 C0.115348367,12.1151444 0.115348367,11.7869755 0.115348367,11.4578385 C0.231805854,9.05513866 1.56940327,7.10161399 3.34732089,6.1548612 C4.28563549,5.65147525 5.57554079,5.22262915 7.01184979,5.41430303 C7.62741079,5.49755532 8.25628121,5.6814848 8.80751332,5.86347818 C9.32990832,6.03869521 9.98317937,6.34943922 10.6020677,6.33298237 C11.0213147,6.32233383 11.4383434,6.131628 11.8609177,5.99706906 C13.0986944,5.60694496 14.3120705,5.15970591 15.91142,5.36977274 C17.8335231,5.62340181 19.1977393,6.36880022 20.0406697,7.51884349 C18.4147014,8.42203404 17.1292325,9.78311218 17.3488381,12.1074 C17.544043,14.2187168 18.9504058,15.4539484 20.7072502,16.1819219 Z" id="Combined-Shape"></path>
                    </g>
                    <g id="Dribbble" transform="translate(35.130373, 26.024968)">
                        <g id="Page-1" transform="translate(-0.000000, 0.000000)">
                            <ellipse id="Oval-3" fill="#FFCFD1" cx="13.7370057" cy="13.6759795" rx="13.5470953" ry="13.4888947"></ellipse>
                            <path d="M22.4339769,6.2233931 C22.190835,6.55207237 20.2577784,9.02825585 15.9928304,10.7683404 C16.2612165,11.3173478 16.5185508,11.8757823 16.7581295,12.4379634 C16.8429815,12.6372014 16.9256594,12.8354121 17.0065859,13.0328372 C20.844858,12.5505447 24.6585501,13.3234456 25.0388443,13.403878 C25.0134793,10.6831339 24.0406097,8.18489348 22.4339769,6.2233931 M10.8018173,2.30619363 C11.1206315,2.73283008 13.2156619,5.58386143 15.1059,9.05424079 C19.2077267,7.51798698 20.9441439,5.18568755 21.151654,4.89036568 C19.1145404,3.08441236 16.4359332,1.98579328 13.504944,1.98579328 C12.5742287,1.98579328 11.6692408,2.09734723 10.8018173,2.30619363 M2.21340053,11.1518902 C2.72933724,11.1586583 7.48171653,11.1793254 12.8775824,9.74743439 C10.9662068,6.35229049 8.9048153,3.4977542 8.60079734,3.08102828 C5.37358086,4.60211414 2.96130645,7.57497255 2.21340053,11.1518902 M4.93506787,21.2200271 C5.19638803,20.7730861 8.3622453,15.5350661 14.3114311,13.6134496 C14.4617491,13.5648638 14.6133957,13.5191786 14.7660086,13.4762733 C14.4763642,12.8214528 14.1610527,12.1659071 13.8307638,11.5200303 C8.07012475,13.2428318 2.48027684,13.17092 1.97557321,13.1605865 C1.97201002,13.2775187 1.96959431,13.3948739 1.96959431,13.5127126 C1.96959431,16.4733037 3.09278184,19.176523 4.93506787,21.2200271 M18.0108598,24.1236326 C17.8392835,23.112335 17.169526,19.5876894 15.5500899,15.3822988 C15.5247249,15.3909403 15.4992994,15.3991588 15.4739948,15.4079816 C8.96762394,17.6735662 6.63210893,22.1823159 6.42447807,22.6063538 C8.38036318,24.1304008 10.8382946,25.0397528 13.504944,25.0397528 C15.1028803,25.0397528 16.625869,24.7131281 18.0108598,24.1236326 M24.8942637,15.3424754 C24.4996563,15.2179894 21.3238342,14.2715333 17.7091368,14.8497284 C19.2178727,18.9928156 19.8318875,22.3670506 19.9500765,23.0682814 C22.5379735,21.3196763 24.3801991,18.5498026 24.8942637,15.3424754 M13.504944,26.9903153 C6.05831579,26.9903153 0,20.9364286 0,13.4951879 C0,6.05388669 6.05831579,0 13.504944,0 C20.9515723,0 27.0098881,6.05388669 27.0098881,13.4951879 C27.0098881,20.9364286 20.9515723,26.9903153 13.504944,26.9903153" id="Fill-1" fill="#FF9A9E"></path>
                        </g>
                    </g>
                    <g id="behance" transform="translate(116.602856, 53.189842)">
                        <g id="Shape">
                            <mask id="mask-5" fill="white">
                                <use xlink:href="#path-4"></use>
                            </mask>
                            <use id="Mask" fill="#171717" fill-rule="nonzero" xlink:href="#path-4"></use>
                            <path d="M20.1983854,10.7455174 C16.1719134,10.7455174 16.1565776,14.5765357 16.1565256,14.5962343 C16.1565256,14.5962343 15.8750206,18.4319992 20.1128754,18.4319992 C20.1128754,18.4319992 23.6434653,18.6270864 23.6969877,15.7624853 L21.8718341,15.7624853 C21.8718341,15.7624853 21.9162179,16.8409233 20.1911683,16.8409233 C20.1911683,16.8409233 18.3693365,16.9581655 18.3830452,15.0986668 L23.7702082,15.0986668 C23.7702082,15.0986668 24.4499999,10.7455174 20.1983854,10.7455174 Z M18.3724446,13.7565525 C18.3724446,13.7565525 18.6079459,12.2143671 20.2229209,12.2143671 C21.8428505,12.2143671 21.7949017,13.7565525 21.7949017,13.7565525 L18.3724446,13.7565525 Z M13.7905993,12.7709114 C13.7905993,12.7709114 15.3832512,12.6586532 15.3850404,10.8627596 C15.3868246,9.07184989 14.0725618,8.19324565 12.402906,8.19324565 L6.9107552,8.19324565 L7.07870027,18.2219601 L12.4550782,18.2219601 C12.4550782,18.2219601 15.7392872,18.319741 15.7447023,15.2598154 C15.7449484,15.2598154 15.8918811,12.7709114 13.7905993,12.7709114 Z M9.35147603,9.9744247 L12.4120102,9.9744247 C12.4120102,9.9744247 13.1542444,9.9744247 13.1581001,11.0186869 C13.1619558,12.0629491 12.7294766,12.2143671 12.2352482,12.2143671 L9.37764172,12.2143671 L9.35147603,9.9744247 Z M12.2947263,16.440781 L9.4270122,16.440781 L9.3956566,13.7565507 L12.4318723,13.7565525 C12.4318723,13.7565525 13.5338796,13.7468219 13.5327672,15.1375893 C13.5361982,16.3090616 12.723856,16.4310504 12.2947263,16.440781 Z M17.9522543,8.78372846 L17.944386,10.0185685 L22.2843864,10.0185685 L22.3035148,8.78372846 L17.9522543,8.78372846 Z" fill="#F1F2F2" fill-rule="nonzero" mask="url(#mask-5)"></path>
                        </g>
                    </g>
                </g>
            </g>
            <g id="plante" transform="translate(667.380608, 486.177515) scale(-1, 1) translate(-667.380608, -486.177515) translate(601.331404, 393.859679)">
                <g transform="translate(65.366661, 98.229871) scale(-1, 1) translate(-65.366661, -98.229871) translate(26.776704, 12.487437)" fill="#FFFFFF">
                    <g id="Group-2">
                        <path d="M43.6722752,52.5240815 C44.4170115,46.3285558 47.7052862,40.7180587 51.3732591,35.6333651 C53.5972059,32.5493252 57.2783729,29.2298292 60.7513657,30.8433527 C62.1132948,31.4760504 63.0368851,32.7558908 63.7742914,34.0487319 C69.0284939,43.2488493 67.6255163,54.5420693 66.973139,65.0783632 C66.526004,72.319718 66.4820236,79.7257475 64.0249802,86.562638 C63.202545,88.8507501 63.4190067,92.6555555 62.0851862,91.5905492 C60.7513657,90.5255428 50.3104095,73.4854406 47.0991067,67.0954023 C44.9582383,61.787836 43.0946648,57.3285391 43.6722752,52.5240815 Z" id="Fill-1" fill-opacity="0.5"></path>
                        <g id="Group-3">
                            <g id="Group-7" transform="translate(0.000000, 159.610845)" fill-opacity="0.5">
                                <path d="M47.7553731,-30.2847283 C43.1771167,-35.9591876 19.6895564,-44.7886866 14.4408502,-49.860676 C5.31487859,-58.6800858 -0.0167248882,-71.2368268 0.000727168992,-83.8699575 C0.0210879024,-99.0844844 7.3800387,-113.561058 7.59091772,-128.775585 C7.68835838,-135.768848 6.26456137,-142.736167 6.61069384,-149.719341 C6.95828065,-156.705397 9.53536777,-164.15844 15.5403298,-167.832353 C24.1921872,-173.124864 36.2995519,-167.845325 41.4929932,-159.18446 C46.6878889,-150.523595 46.6617108,-139.801648 45.7367518,-129.768651 C44.8103384,-119.735653 43.152393,-109.483576 45.5840463,-99.7013674 C49.5209395,-83.8555444 63.481131,-71.9906348 67.8586887,-56.2586757 C69.5399035,-50.2224462 53.6076296,-37.5388694 53.433109,-31.2777947 C53.2338647,-24.1692265 52.9110017,-14.8309431 49.759451,-8.4430326 C45.3368088,0.523391384 56.775178,4.22036575 48.0884165,-5.79533595 C42.2245253,-12.5565472 54.3333443,-22.1340889 47.7553731,-30.2847283" id="Fill-5"></path>
                            </g>
                            <path d="M49.6271751,137.28765 L48.9074356,137.160997 C51.9004988,120.579515 48.5066051,102.820734 39.5932453,88.4412889 C38.5984834,86.8365365 37.5144854,85.2332233 36.4655967,83.6817227 C33.5134943,79.3136297 30.4604528,74.7958559 28.9902531,69.672162 C26.798851,62.039873 28.329029,54.0189894 29.808006,46.2614866 C30.1956706,44.2321584 30.5950382,42.1337467 30.9183359,40.0871476 C33.4110923,24.3361067 30.8334885,10.2473877 23.6609622,0.418818797 L24.2563565,0 C31.5400621,9.98256761 34.1630153,24.2583877 31.6424641,40.1965298 C31.3162406,42.256082 30.9154101,44.3602507 30.5262826,46.3953359 C29.0633974,54.070802 27.5493112,62.0067705 29.6939009,69.4749861 C31.13338,74.4921762 34.154238,78.961016 37.0756198,83.2844925 C38.1274343,84.8403108 39.2158209,86.4508202 40.2178973,88.0670865 C49.2219559,102.594774 52.6524218,120.533459 49.6271751,137.28765" id="Fill-8"></path>
                            <path d="M31.3624387,36.4612188 C26.8107917,31.1352877 22.581437,27.0642099 17.6518289,23.2593567 L18.1030382,22.6952484 C23.0751303,26.5303217 27.3381792,30.6330586 31.9235204,35.997844 L31.3624387,36.4612188 Z" id="Fill-10"></path>
                            <path d="M32.9104947,76.64297 L32.2990913,76.2691639 C33.4286089,74.4472159 34.7748448,72.1986723 36.1225158,69.9501287 C37.4716221,67.6973048 38.8192931,65.4459078 39.950246,63.6211062 L40.5616495,63.9949123 C39.4321318,65.8168604 38.085896,68.065404 36.7382249,70.3139476 C35.3905539,72.5667714 34.0414476,74.8181685 32.9104947,76.64297" id="Fill-12"></path>
                            <path d="M47.8376961,109.011603 C45.7631035,105.791896 41.6515592,104.803527 37.6746535,103.846626 L36.6004402,103.584873 C30.6937145,102.130212 25.0750866,99.7787239 19.9052539,96.5947752 L20.2874538,95.9897392 C25.3950342,99.1322079 30.9412758,101.455089 36.7756151,102.892586 L37.846933,103.151478 C41.7702728,104.094076 46.2176898,105.165404 48.4486369,108.62827 L47.8376961,109.011603 Z" id="Fill-14"></path>
                            <path d="M28.4190138,55.0638814 C24.4526307,51.2667832 20.7038009,47.1622393 17.2762581,42.8608727 L17.8410319,42.4140708 C21.2469634,46.6895775 24.974182,50.7711348 28.9189538,54.5452463 L28.4190138,55.0638814 Z" id="Fill-16"></path>
                            <polygon id="Fill-18" points="31.8310484 20.8349821 31.1723788 20.520199 36.8969495 8.92927806 37.5570829 9.24406126"></polygon>
                            <path d="M43.5052724,93.7574197 L42.8150745,93.4896022 C44.4876493,89.5224663 46.416626,85.6068889 48.5438668,81.8517156 L49.1997785,82.1925742 C47.0844633,85.9248327 45.168903,89.816063 43.5052724,93.7574197" id="Fill-20"></path>
                        </g>
                    </g>
                    <polygon id="Fill-22" points="77.0712656 119.087289 6.9692633 119.087289 19.351624 171.466028 57.6588301 171.466028"></polygon>
                </g>
                <path d="M1.78199994,0 L130.316408,0 C131.30058,-1.80789352e-16 132.098408,0.797828551 132.098408,1.78199994 L132.098408,181.069753 C132.098408,182.053924 131.30058,182.851752 130.316408,182.851752 L1.78199994,182.851752 C0.797828551,182.851752 5.00550754e-15,182.053924 4.88498131e-15,181.069753 L0,1.78199994 C-1.20526235e-16,0.797828551 0.797828551,5.06577066e-15 1.78199994,4.88498131e-15 Z" id="Rectangle-12" stroke="#FFFFFF" stroke-width="2.42999987" opacity="0.5" stroke-linecap="round" stroke-linejoin="round" stroke-dasharray="7.4843997879982"></path>
            </g>
            <g id="café" transform="translate(555.947902, 232.708369)">
                <polygon id="Fill-1" fill="#FFFFFF" points="0 26.324751 30.4156538 26.324751 29.0951522 21.2103958 1.48551058 21.2103958"></polygon>
                <polygon id="Fill-3" fill="#FFFFFF" points="2.1485545 26.2293303 6.10432982 66.3929924 23.9896137 66.3929924 27.8614522 26.2293303"></polygon>
                <ellipse id="Oval" fill="#FEADBB" opacity="0.308816964" cx="15.0398815" cy="43.7155506" rx="5.01329384" ry="5.10014756"></ellipse>
                <polygon id="Rectangle-2" fill="#FEE5EA" points="3.58092417 41.529773 26.4988389 41.529773 25.7826541 46.6299206 4.29710901 46.6299206"></polygon>
                <g id="chaud" opacity="0.209821429" transform="translate(4.297109, 0.000000)" fill="#FFFFFF">
                    <path d="M11.9738368,10.4904316 C10.4905905,12.0351479 10.4905905,14.5371573 11.9738368,16.0841824 C12.5297681,16.6622877 12.5297681,17.6011347 11.9738368,18.1792638 C11.4156796,18.7573692 10.5150693,18.7573692 9.95689503,18.1792638 C7.36623779,15.4760399 7.36623779,11.10331 9.95689503,8.39973084 C11.4401414,6.85270581 11.4401414,4.35069636 9.95689503,2.80598006 C9.40096371,2.22556004 9.40096371,1.28902769 9.95689503,0.708589913 C10.5150522,0.130484543 11.4156625,0.130484543 11.9738368,0.708589913 C14.564494,3.41181384 14.564494,7.78691168 11.9738368,10.4898988 L11.9738368,10.4904316 Z" id="Path"></path>
                    <path d="M20.645249,5.44675587 L20.645249,5.44444122 C20.0870918,4.86633585 19.1864815,4.86633585 18.6283072,5.44444122 C18.0723759,6.02254659 18.0723759,6.9613936 18.6283072,7.53952264 C19.5266803,8.47834597 19.5266803,9.99529834 18.6283072,10.9318721 C16.6203031,13.0269536 16.6203031,16.4169351 18.6283072,18.5098262 C19.1864644,19.0879316 20.0870747,19.0879316 20.645249,18.5098262 C21.2011803,17.9317208 21.2011803,16.9928738 20.645249,16.4147448 C19.7468759,15.4759215 19.7468759,13.9589691 20.645249,13.0223953 C22.6599706,10.9296226 22.6621908,7.53502359 20.649695,5.43970537 L20.645249,5.44675587 Z" id="Path"></path>
                    <path d="M3.56699523,5.44675587 L3.56699523,5.44444122 C3.00883805,4.86633585 2.10822772,4.86633585 1.55005346,5.44444122 C0.994122143,6.02254659 0.994122143,6.9613936 1.55005346,7.53952264 C2.44842653,8.47834597 2.44842653,9.99529834 1.55005346,10.9318721 C-0.45795069,13.0269536 -0.45795069,16.4169351 1.55005346,18.5098262 C2.10821064,19.0879316 3.00882097,19.0879316 3.56699523,18.5098262 C4.12292654,17.9317208 4.12292654,16.9928738 3.56699523,16.4147448 C2.66862215,15.4759215 2.66862215,13.9589691 3.56699523,13.0223953 C5.57949665,10.9273139 5.57949665,7.53271486 3.56699523,5.43970537 L3.56699523,5.44675587 Z" id="Path"></path>
                </g>
            </g>
            <g id="decore">
                <path d="M898.236375,620.584928 L898.236375,600.651294 L918.185347,600.651294 C919.136167,600.651294 919.826339,599.961647 919.826339,599.011371 C919.826339,598.061273 919.136167,597.371626 918.185347,597.371626 L863.038862,597.371626 L894.954212,565.48035 L894.954212,590.886295 C894.954212,591.836571 895.644563,592.526218 896.595383,592.526218 C897.546382,592.526218 898.236375,591.836571 898.236375,590.886295 L898.236375,562.20086 L908.483942,551.960901 C908.816505,551.628948 908.994147,551.199751 908.984308,550.752677 C908.975542,550.350473 908.810781,549.982589 908.520436,549.716598 L908.484121,549.681561 C908.151915,549.349787 907.72418,549.174247 907.2748,549.181933 C906.87211,549.190513 906.504125,549.355149 906.237932,549.645273 L906.203047,549.681561 L895.48821,560.388435 L868.08921,560.388435 C867.138211,560.388435 866.448039,561.078083 866.448039,562.028359 C866.448039,562.978456 867.138211,563.668104 868.08921,563.668104 L892.206047,563.668104 L861.225059,594.625371 L861.225059,562.407683 L861.313611,562.230713 C861.31862,562.17351 861.31862,562.081986 861.31862,562.028359 C861.31862,561.974731 861.31862,561.883207 861.313611,561.825826 L861.225059,561.648856 L861.225059,540.454801 C861.225059,539.504525 860.534887,538.814877 859.584067,538.814877 C858.633247,538.814877 857.943075,539.504525 857.943075,540.454801 L857.943075,560.388435 L837.994103,560.388435 C837.043283,560.388435 836.353111,561.078083 836.353111,562.028359 C836.353111,562.978456 837.043283,563.668104 837.994103,563.668104 L857.943075,563.668104 L857.943075,599.011371 C857.943075,599.961647 858.633247,600.651294 859.584067,600.651294 L894.954212,600.651294 L894.954212,620.584928 C894.954212,621.535026 895.644563,622.224852 896.595383,622.224852 C897.546382,622.224852 898.236375,621.535026 898.236375,620.584928" id="Fill-1" fill="#FFFFFF" opacity="0.5"></path>
                <path d="M325.195944,544.165529 L307.406975,526.333334 L311.48952,522.24073 L329.278627,540.072926 L325.195944,544.165529 Z M301.73488,557.921177 C300.006975,559.652174 297.292505,560.075303 295.132831,558.949588 L295.111153,558.937823 C294.73282,558.727158 294.300084,558.740445 293.952819,558.972288 L290.872581,561.03077 L292.670353,557.786778 C292.876227,557.415554 292.89321,556.929585 292.716057,556.513238 C291.611435,554.352745 292.037681,551.646904 293.758129,549.922275 L310.550591,533.014126 L318.603699,541.086665 L301.73488,557.921177 Z M325.777804,520.799295 L330.870387,525.904114 L324.758376,531.939763 L319.665793,526.834666 L325.777804,520.799295 Z M332.305567,540.019775 C332.298801,539.708345 332.17177,539.423491 331.947532,539.217532 L331.919364,539.190541 L326.447895,533.705639 L333.494555,526.726842 C333.732739,526.527804 333.892909,526.195197 333.892909,525.899408 C333.892909,525.55725 333.767948,525.240146 333.566631,525.071974 L333.506567,525.017023 L326.653493,518.147158 C326.396945,517.890125 326.066525,517.753649 325.720088,517.760155 C325.409275,517.766937 325.125111,517.894277 324.919651,518.118922 L324.889136,518.150757 L317.906268,525.071005 L312.44198,519.593438 C312.230859,519.381804 311.909967,519.260278 311.561735,519.260278 C311.213502,519.260278 310.892748,519.381804 310.681489,519.593438 L304.838177,525.450949 C304.581767,525.707982 304.444656,526.040174 304.45225,526.386484 C304.458878,526.697914 304.586047,526.982769 304.810147,527.188728 L304.838177,527.215718 L308.866181,531.25351 L291.922662,548.087884 C289.796679,550.219033 289.005494,553.438664 289.909765,556.287624 L290.075458,556.809442 L289.41517,557.471334 C288.186278,558.82903 288.210166,560.877685 289.472749,562.143197 L289.530465,562.201054 C290.17446,562.78668 291.003893,563.109045 291.867983,563.109045 C292.731935,563.109045 293.578766,562.75706 294.191003,562.143197 L294.784737,561.548158 L295.296453,561.699721 C298.243861,562.572278 301.386096,561.800486 303.49689,559.684562 L320.36419,542.851572 L324.315699,546.812683 C324.579151,547.077052 324.859035,547.200101 325.195944,547.200101 C325.537411,547.200101 325.853747,547.074699 326.021511,546.873031 L326.07619,546.812683 L331.919364,540.95531 C332.17605,540.698277 332.313161,540.365947 332.305567,540.019775 Z" id="Fill-1" fill="#FFFFFF" opacity="0.5" transform="translate(311.201158, 540.434489) scale(-1, 1) translate(-311.201158, -540.434489) "></path>
                <g id="Group-9" transform="translate(770.044921, 666.250462) rotate(123.000000) translate(-770.044921, -666.250462) translate(740.869813, 648.029837)">
                    <ellipse id="Oval-9" fill="#FFFFFF" cx="2.69308694" cy="2.666433" rx="2.69308694" ry="2.666433"></ellipse>
                    <ellipse id="Oval-9-Copy" fill="#FFFFFF" cx="55.6571301" cy="33.7748181" rx="2.69308694" ry="2.666433"></ellipse>
                    <path d="M3.59078259,3.55524401 C28.7262607,18.9613014 45.782478,29.0344927 54.7594345,33.7748181" id="Path-7" stroke="#FFFFFF" stroke-width="1.78199994"></path>
                    <rect id="Rectangle-4" stroke="#FFFFFF" stroke-width="1.47014999" fill="#FFD7DE" x="24.9728575" y="15.844862" width="5.71141519" height="5.64033803" rx="1.29373207"></rect>
                </g>
                <path d="M735.248692,659.230347 L756.99062,659.230347 L756.99062,651.208148 L735.248692,651.208148 L735.248692,659.230347 Z M734.527097,635.814575 L745.106773,618.062267 L745.106773,628.812247 L744.610876,628.972401 C742.526477,629.645839 741.12613,631.539588 741.12613,633.68471 C741.12613,635.019621 741.643117,636.268692 742.581687,637.201736 C743.520368,638.134889 744.776838,638.648722 746.119656,638.648722 C747.462474,638.648722 748.718944,638.134889 749.657624,637.201736 C750.596195,636.268692 751.113181,635.019621 751.113181,633.68471 C751.113181,631.522245 749.686665,629.586454 747.644115,628.977341 L747.132649,628.824761 L747.132649,618.070719 L757.712215,635.755848 L751.840187,649.19431 L740.400118,649.19431 L734.527097,635.814575 Z M746.119656,630.734646 C747.783686,630.734646 749.087305,632.030479 749.087305,633.68471 C749.087305,635.31139 747.75597,636.634885 746.119656,636.634885 C744.483341,636.634885 743.152007,635.31139 743.152007,633.68471 C743.152007,632.058031 744.483341,630.734646 746.119656,630.734646 Z M734.235699,661.244294 L758.003503,661.244294 C758.590385,661.244294 759.016496,660.820912 759.016496,660.237375 L759.016496,650.201229 C759.016496,649.617802 758.590385,649.19431 758.003503,649.19431 L754.078733,649.19431 L759.812404,636.183731 C759.92437,635.827198 759.904273,635.439052 759.760175,635.209853 L759.752225,635.1969 L747.013285,613.937446 C746.795316,613.620101 746.502813,613.465765 746.119656,613.465765 C745.682172,613.465765 745.393423,613.750288 745.226026,613.994856 L732.479137,635.209853 C732.307544,635.482631 732.28281,635.803598 732.411007,636.090316 L738.160469,649.136901 L734.235699,649.136901 C733.648816,649.136901 733.222816,649.560502 733.222816,650.143929 L733.222816,660.237375 C733.222816,660.820912 733.648816,661.244294 734.235699,661.244294 Z" id="Fill-1" fill="#FFFFFF" opacity="0.5" transform="translate(746.107091, 637.355030) rotate(142.000000) translate(-746.107091, -637.355030) "></path>
                <g id="Group-9-Copy-2" transform="translate(314.535102, 34.897504) rotate(-49.000000) translate(-314.535102, -34.897504) translate(287.535102, 12.897504)">
                    <g id="Group-11" transform="translate(27.074267, 21.796168) rotate(-8.000000) translate(-27.074267, -21.796168) translate(2.574267, 3.296168)">
                        <ellipse id="Oval-9" fill="#FFFFFF" cx="3.26992961" cy="2.8847777" rx="2.43125904" ry="2.42941674"></ellipse>
                        <ellipse id="Oval-9-Copy" fill="#FFFFFF" cx="45.8145686" cy="33.7234483" rx="2.43125904" ry="2.42941674"></ellipse>
                        <path d="M4.08034929,3.69458328 L46.8305069,34.9114345" id="Path-7" stroke="#FFFFFF" stroke-width="1.61999991"></path>
                    </g>
                    <path d="M30.7191251,19.9241379 L26.7480402,18.7854477 C26.478417,18.7081345 26.1971694,18.8640325 26.1198562,19.1336557 L24.9825201,23.1000181 C24.9052069,23.3696414 25.061105,23.6508889 25.3307282,23.7282021 L29.3018131,24.8668924 C29.5714363,24.9442056 29.8526839,24.7883076 29.9299971,24.5186843 L31.0673332,20.5523219 C31.1446464,20.2826987 30.9887483,20.0014512 30.7191251,19.9241379 Z" id="Rectangle-4" stroke="#FFFFFF" stroke-width="1.33649996" fill="#FFD7DE" transform="translate(28.024927, 21.826170) rotate(2.000000) translate(-28.024927, -21.826170) "></path>
                </g>
                <rect id="Rectangle-4-Copy-3" stroke="#FFFFFF" stroke-width="1.33649996" fill="#FFD7DE" x="731.184893" y="266.451851" width="5.14685749" height="5.14194467" rx="1.17612004"></rect>
                <rect id="Rectangle-4-Copy" stroke="#FFFFFF" stroke-width="1.33649996" fill="#FFD7DE" x="607.876644" y="94.1745898" width="5.14685749" height="5.14194467" rx="1.17612004"></rect>
                <rect id="Rectangle-4-Copy-2" stroke="#FFFFFF" stroke-width="1.33649996" fill="#FFD7DE" x="84.5582645" y="416.50426" width="5.14685749" height="5.14194467" rx="1.17612004"></rect>
                <rect id="Rectangle-4-Copy-4" stroke="#FFFFFF" stroke-width="1.33649996" fill="#FFD7DE" x="455.863619" y="629.924378" width="5.14685749" height="5.14194467" rx="1.17612004"></rect>
                <g id="regle" opacity="0.400000006" transform="translate(553.242150, 485.093425) rotate(173.000000) translate(-553.242150, -485.093425) translate(527.308720, 459.179646)">
                    <g id="Group-3">
                        <mask id="mask-7" fill="white">
                            <use xlink:href="#path-6"></use>
                        </mask>
                        <g id="Clip-2"></g>
                        <path d="M44.2303566,18.3378765 L40.1689097,14.2795073 C39.9496275,14.0602732 39.6694992,13.9439858 39.370231,13.9494165 C39.1045167,13.9552013 38.8613686,14.0638149 38.6856829,14.2554234 L38.662526,14.2795073 C38.4431256,14.4987414 38.3256868,14.7821992 38.3321849,15.0775808 C38.3379741,15.3432118 38.4467882,15.5861756 38.6384238,15.7617282 L38.6626441,15.7848676 L42.7239728,19.8431188 L38.1195189,24.4442017 L34.0580721,20.3858324 C33.8386717,20.1665983 33.5591342,20.0497207 33.2595115,20.0556236 C32.9936791,20.0614084 32.750531,20.17014 32.5748453,20.3617485 L32.5515702,20.3858324 C32.3321699,20.6050665 32.2148491,20.8885243 32.2212291,21.1837879 C32.2270184,21.4494189 32.3358324,21.6923827 32.5275862,21.8680533 L32.5515702,21.8910747 L36.6130171,25.9494439 L32.0086813,30.5504087 L27.9472345,26.4920395 C27.727716,26.2728054 27.4428618,26.1564 27.1486739,26.1618306 C26.8828415,26.1676155 26.6395752,26.2763471 26.4637714,26.4679556 L26.4408507,26.4920395 C26.2212141,26.7113916 26.1038934,26.9947314 26.1103915,27.289995 C26.1161807,27.555626 26.2249948,27.7987078 26.4167486,27.9742604 L26.4408507,27.9973998 L30.5021794,32.055651 L25.8977256,36.6566158 L21.8362787,32.5983646 C21.6168784,32.3790124 21.332733,32.2623709 21.0377181,32.2681558 C20.7718857,32.2739406 20.5287376,32.3826723 20.3529338,32.5742807 L20.329895,32.5982466 C20.1103765,32.8174807 19.9930558,33.1010565 19.9995539,33.3963201 C20.005225,33.6620691 20.1140391,33.9049149 20.3057928,34.0807036 L20.329895,34.1036069 L24.3913418,38.1619761 L12.8117996,49.7327439 L2.09638994,39.0254539 L38.9836515,2.16614396 L49.698943,12.8734339 L44.2303566,18.3378765 Z M51.7954748,12.8734339 C51.7954748,12.2478434 51.5506726,11.6688859 51.123923,11.2850787 L51.0945042,11.2572169 L40.600976,0.771758367 C40.148352,0.319359282 39.5668288,0.0713189686 38.9609672,0.0713189686 C38.9515154,0.0713189686 38.9420635,0.0713189686 38.9324936,0.0714370268 C38.3449448,0.0789927527 37.7936675,0.322664912 37.3801504,0.75770944 L37.3663271,0.771758367 L0.700946936,37.409355 C0.241115916,37.8688376 -0.00770323291,38.4607815 0.000212665939,39.0765731 C0.00765597381,39.6637947 0.251631065,40.2146543 0.686887354,40.6279762 L0.700946936,40.6415528 L11.194357,51.1270114 C11.6595046,51.5919247 12.2036931,51.8275689 12.8117996,51.8275689 C13.4378645,51.8275689 14.0171429,51.5829522 14.4013593,51.1564079 L14.4291241,51.1270114 L51.0945042,14.4895328 C51.5596519,14.0247376 51.7954748,13.4809615 51.7954748,12.8734339 Z" id="Fill-1" fill="#FFFFFF" mask="url(#mask-7)"></path>
                    </g>
                    <path d="M11.7434399,39.0375632 C10.7069279,39.0375632 9.86372207,38.1949964 9.86372207,37.1593805 C9.86372207,36.1236539 10.7069279,35.2810871 11.7434399,35.2810871 C12.779952,35.2810871 13.6231578,36.1236539 13.6231578,37.1593805 C13.6231578,38.1949964 12.779952,39.0375632 11.7434399,39.0375632 M11.7434399,33.2478668 C9.58501944,33.2478668 7.82895994,35.0025956 7.82895994,37.1593805 C7.82895994,39.3161654 9.58501944,41.0708943 11.7434399,41.0708943 C13.9018604,41.0708943 15.6579199,39.3161654 15.6579199,37.1593805 C15.6579199,35.0025956 13.9018604,33.2478668 11.7434399,33.2478668" id="Fill-4" fill="#FFFFFF"></path>
                </g>
                <g id="idée" opacity="0.5" transform="translate(456.000000, 69.000000)">
                    <g id="Group-3" transform="translate(12.106482, 12.630780)">
                        <mask id="mask-9" fill="white">
                            <use xlink:href="#path-8"></use>
                        </mask>
                        <g id="Clip-2"></g>
                        <path d="M25.5627555,27.5924235 L22.818937,29.3351987 C22.3776625,29.575143 22.0770409,30.0334299 22.0770409,30.4811893 L22.0770409,35.2270286 L17.8924149,35.2270286 L17.8924149,21.8297944 L18.4204752,21.5962759 C19.9129732,20.936053 20.8772749,19.4329487 20.8772749,17.7666001 C20.8772749,15.3811022 19.0180457,13.5124075 16.644495,13.5124075 C14.2710804,13.5124075 12.4118512,15.3811022 12.4118512,17.7666001 C12.4118512,19.4329487 13.3762889,20.936053 14.8686509,21.5962759 L15.3967112,21.8297944 L15.3967112,35.2270286 L11.2120852,35.2270286 L11.2120852,30.4811893 C11.2120852,30.0291916 10.9846466,29.6277804 10.6345108,29.441157 L10.5372509,29.441157 L10.3504846,29.3473668 C5.65004083,26.9852481 2.61294613,22.0469064 2.61294613,16.766627 C2.61294613,8.99010607 8.90750071,2.66350524 16.644495,2.66350524 C24.3816254,2.66350524 30.676316,8.99010607 30.676316,16.766627 C30.676316,21.0555466 28.7736939,24.9843447 25.5627555,27.5924235 Z M14.9075549,17.7666001 C14.9075549,16.7714122 15.654348,16.0208171 16.644495,16.0208171 C17.6349141,16.0208171 18.3815712,16.7714122 18.3815712,17.7666001 C18.3815712,18.7619248 17.6349141,19.5125199 16.644495,19.5125199 C15.654348,19.5125199 14.9075549,18.7619248 14.9075549,17.7666001 Z M8.22722523,41.5842548 L25.0619008,41.5842548 L25.0619008,37.7354382 L8.22722523,37.7354382 L8.22722523,41.5842548 Z M8.22722523,47.941481 L25.0619008,47.941481 L25.0619008,44.0926644 L8.22722523,44.0926644 L8.22722523,47.941481 Z M33.1718836,16.6952589 C33.1718836,7.53567421 25.7578195,0.0837275867 16.644495,0.0837275867 C7.53130655,0.0837275867 0.11710641,7.53567421 0.11710641,16.6952589 C0.11710641,22.5101152 3.24656404,27.9924674 8.28408489,31.0029144 L8.71638152,31.261316 L8.71638152,35.2270286 L6.97930537,35.2270286 C6.25631713,35.2270286 5.73152153,35.7543592 5.73152153,36.481165 L5.73152153,49.1956174 C5.73152153,49.9222865 6.25631713,50.4498906 6.97930537,50.4498906 L26.3096847,50.4498906 C27.0328089,50.4498906 27.5576045,49.9222865 27.5576045,49.1956174 L27.5576045,36.481165 C27.5576045,35.7543592 27.0328089,35.2270286 26.3096847,35.2270286 L24.5727446,35.2270286 L24.5727446,31.252019 L25.0171477,30.9959417 C27.4980243,29.5663929 29.5627917,27.4909769 30.9885,24.9940518 C32.4169288,22.4923415 33.1718836,19.6225799 33.1718836,16.6952589 Z" id="Fill-1" fill="#FFFFFF" mask="url(#mask-9)"></path>
                    </g>
                    <path d="M28.7510316,8.50854939 C29.4740199,8.50854939 29.9989515,7.981082 29.9989515,7.25427624 L29.9989515,1.25416378 C29.9989515,0.527494734 29.4740199,2.73440845e-05 28.7510316,2.73440845e-05 C28.0280434,2.73440845e-05 27.5032478,0.527494734 27.5032478,1.25416378 L27.5032478,7.25427624 C27.5032478,7.981082 28.0280434,8.50854939 28.7510316,8.50854939" id="Fill-4" fill="#FFFFFF"></path>
                    <path d="M56.2541706,27.6432561 L50.3555932,27.6432561 C49.632469,27.6432561 49.1078094,28.1707235 49.1078094,28.8973926 C49.1078094,29.6241983 49.632469,30.1516657 50.3555932,30.1516657 L56.2541706,30.1516657 C56.9771588,30.1516657 57.5020905,29.6241983 57.5020905,28.8973926 C57.5020905,28.1707235 56.9771588,27.6432561 56.2541706,27.6432561" id="Fill-6" fill="#FFFFFF"></path>
                    <g id="Group-10" transform="translate(0.000000, 27.533306)">
                        <mask id="mask-11" fill="white">
                            <use xlink:href="#path-10"></use>
                        </mask>
                        <g id="Clip-9"></g>
                        <path d="M7.14644284,0.109950564 L1.24786545,0.109950564 C0.524741188,0.109950564 -5.44111559e-05,0.637417953 -5.44111559e-05,1.364087 C-5.44111559e-05,2.09089276 0.524741188,2.61836015 1.24786545,2.61836015 L7.14644284,2.61836015 C7.86943107,2.61836015 8.3943627,2.09089276 8.3943627,1.364087 C8.3943627,0.637417953 7.86943107,0.109950564 7.14644284,0.109950564" id="Fill-8" fill="#FFFFFF" mask="url(#mask-11)"></path>
                    </g>
                    <path d="M47.9135661,8.07154991 C47.9048603,8.07154991 47.8958825,8.07154991 47.8871767,8.07182335 C47.581114,8.07852265 47.3010325,8.20444216 47.098623,8.42620268 L47.0720976,8.45409365 L42.9503165,12.5971326 C42.6974407,12.8510224 42.562365,13.1791514 42.5698465,13.5212259 C42.5765119,13.8288469 42.7017936,14.1102175 42.9225668,14.3136575 L42.9501805,14.340318 C43.2098577,14.6013173 43.4853142,14.7228617 43.8173583,14.7228617 C44.1492663,14.7228617 44.4249949,14.6013173 44.6845361,14.340318 L48.8063172,10.1974158 C49.059193,9.94338921 49.1942687,9.6152602 49.1867872,9.27332242 C49.1802578,8.96570147 49.0549762,8.68419412 48.8342029,8.48089085 L48.8063172,8.45409365 C48.5603787,8.20676641 48.2442499,8.07154991 47.9135661,8.07154991" id="Fill-11" fill="#FFFFFF"></path>
                    <path d="M14.5519236,12.5970643 L10.4300065,8.45416201 C10.183932,8.20683477 9.86766717,8.07148155 9.53698337,8.07148155 C9.52814156,8.07148155 9.51929974,8.07161827 9.51045793,8.07175499 C9.20439518,8.07845429 8.92444978,8.2043738 8.72217631,8.42627104 L8.69551484,8.45416201 C8.44291105,8.70805183 8.30783536,9.03631757 8.31518086,9.37825534 C8.32184623,9.6858763 8.44712792,9.96724692 8.66776515,10.1706869 L8.69551484,10.1973474 L12.817568,14.3402496 C13.0980575,14.6223039 13.4494175,14.7227934 13.6847458,14.7227934 C14.0166538,14.7227934 14.2922463,14.6012489 14.5519236,14.3402496 C14.8045274,14.0863598 14.9397391,13.7580941 14.9322576,13.4161563 C14.9255922,13.1085354 14.8004465,12.8271647 14.5796733,12.6237247 L14.5519236,12.5970643 Z" id="Fill-13" fill="#FFFFFF"></path>
                </g>
            </g>
        </g>
    </g>
</svg>